<svg width="118" height="118" viewBox="0 0 118 118" fill="none" xmlns="http://www.w3.org/2000/svg">
<path d="M0 118L-2.57897e-06 59L-5.15794e-06 7.62939e-06L118 2.47145e-06L118 59L118 118L0 118Z" fill="#FFE600"/>
<path fill-rule="evenodd" clip-rule="evenodd" d="M80.1345 54.5592C81.34 55.4086 80.739 57.3049 79.2644 57.3049L37.564 57.3049C36.8884 57.3049 36.2514 56.9753 35.8408 56.4133L21.6797 37.0282C21.0187 36.1233 21.0994 34.8454 21.8686 34.0397L32.3259 23.0857C33.0597 22.3171 34.2102 22.2002 35.0713 22.8069L80.1345 54.5592ZM41.9341 54.0351L70.7273 54.0351L40.526 32.3734C39.6582 31.751 38.4893 31.87 37.7522 32.6559L32.1243 38.6569C31.372 39.459 31.2927 40.7168 31.9377 41.6155L40.1996 53.1279C40.6095 53.6991 41.2519 54.0351 41.9341 54.0351Z" fill="black"/>
<path fill-rule="evenodd" clip-rule="evenodd" d="M80.1346 63.4915C81.34 62.6421 80.739 60.7459 79.2644 60.7459L37.564 60.7459C36.8884 60.7459 36.2514 61.0755 35.8408 61.6375L21.6797 81.0226C21.0187 81.9275 21.0994 83.2053 21.8686 84.0111L32.3259 94.9651C33.0597 95.7337 34.2102 95.8505 35.0713 95.2438L80.1346 63.4915ZM41.9341 64.0157L70.7273 64.0157L40.526 85.6774C39.6582 86.2998 38.4893 86.1807 37.7522 85.3948L32.1243 79.3939C31.372 78.5918 31.2927 77.334 31.9377 76.4352L40.1996 64.9228C40.6095 64.3517 41.2519 64.0157 41.9341 64.0157Z" fill="black"/>
<path fill-rule="evenodd" clip-rule="evenodd" d="M38.8186 63.4925C37.6131 62.6431 38.2141 60.7468 39.6887 60.7468L81.3891 60.7468C82.0647 60.7468 82.7017 61.0765 83.1123 61.6385L97.2734 81.0236C97.9344 81.9285 97.8537 83.2063 97.0845 84.012L86.6272 94.9661C85.8935 95.7347 84.7429 95.8515 83.8818 95.2448L38.8186 63.4925ZM77.0191 64.0167L48.2258 64.0167L78.4271 85.6784C79.2949 86.3008 80.4639 86.1817 81.2009 85.3958L86.8289 79.3949C87.5811 78.5927 87.6604 77.335 87.0154 76.4362L78.7535 64.9238C78.3436 64.3527 77.7012 64.0167 77.0191 64.0167Z" fill="black"/>
<path fill-rule="evenodd" clip-rule="evenodd" d="M38.8186 54.5602C37.6131 55.4096 38.2141 57.3059 39.6887 57.3059L81.3891 57.3059C82.0647 57.3059 82.7017 56.9763 83.1123 56.4142L97.2734 37.0292C97.9344 36.1242 97.8537 34.8464 97.0845 34.0407L86.6272 23.0867C85.8935 22.318 84.7429 22.2012 83.8818 22.8079L38.8186 54.5602ZM77.0191 54.036L48.2258 54.036L78.4271 32.3744C79.2949 31.7519 80.4639 31.871 81.2009 32.6569L86.8289 38.6579C87.5811 39.46 87.6604 40.7177 87.0154 41.6165L78.7535 53.1289C78.3436 53.7001 77.7012 54.036 77.0191 54.036Z" fill="black"/>
</svg>
