<svg width="195" height="53" viewBox="0 0 195 53" fill="none" xmlns="http://www.w3.org/2000/svg">
<path fill-rule="evenodd" clip-rule="evenodd" d="M27.242 0L27.242 38.4144C27.242 39.1774 26.8889 39.8975 26.2856 40.3647L11.7882 51.5938C10.8015 52.358 9.39959 52.265 8.5225 51.3772L0.712067 43.4715C-0.109517 42.6399 -0.23465 41.3459 0.412373 40.3722L27.242 0ZM30.5321 0L30.5321 38.4144C30.5321 39.1774 30.8852 39.8975 31.4884 40.3647L45.9859 51.5938C46.9726 52.358 48.3745 52.265 49.2516 51.3772L57.062 43.4715C57.8836 42.6399 58.0087 41.3459 57.3617 40.3722L30.5321 0ZM24.6694 34.7729L24.6694 11.0934L7.93943 35.8249C7.27555 36.8063 7.40312 38.1211 8.24331 38.9565L12.1537 42.8449C13.027 43.7133 14.407 43.8046 15.3871 43.0588L23.6963 36.7362C24.3094 36.2696 24.6694 35.5434 24.6694 34.7729ZM33.3242 11.0934L33.3242 34.7729C33.3242 35.5434 33.6842 36.2696 34.2973 36.7362L42.6065 43.0588C43.5866 43.8046 44.9666 43.7133 45.8399 42.8449L49.7503 38.9565C50.5905 38.1211 50.718 36.8063 50.0542 35.8249L33.3242 11.0934Z" fill="url(#paint0_linear_2993_387)"/>
<path d="M75.5149 29.9773L76.0698 26.2883L87.0388 26.2883L87.5938 29.9773L75.5149 29.9773ZM81.489 19.7265L78.0612 27.5942L78.1592 28.6388L75.1558 35.168H69.8998L81.489 10.9775L93.0783 35.168H87.7897L84.8515 28.8347L84.9168 27.6594L81.489 19.7265ZM93.2395 29.2591V25.5701H100.062V29.2591H93.2395ZM100.413 16.5272V12.3159L117.389 12.3159V16.5272H111.219V35.168H106.551V16.5272L100.413 16.5272ZM121.576 25.1131V20.9018L138.356 20.9018V25.1131L121.576 25.1131ZM135.385 12.3159H140.053V35.168H135.385V12.3159ZM120.042 12.3159L124.71 12.3159V35.168H120.042V12.3159ZM148.596 23.742C148.596 25.2001 148.901 26.4951 149.51 27.6268C150.119 28.7585 150.957 29.6508 152.024 30.3038C153.09 30.9567 154.331 31.2831 155.745 31.2831C157.16 31.2831 158.401 30.9567 159.467 30.3038C160.533 29.6508 161.36 28.7585 161.948 27.6268C162.557 26.4951 162.862 25.2001 162.862 23.742C162.862 22.2838 162.568 20.9888 161.981 19.8571C161.393 18.7254 160.566 17.8331 159.5 17.1802C158.433 16.5272 157.182 16.2008 155.745 16.2008C154.331 16.2008 153.09 16.5272 152.024 17.1802C150.957 17.8331 150.119 18.7254 149.51 19.8571C148.901 20.9888 148.596 22.2838 148.596 23.742ZM143.666 23.742C143.666 22.0009 143.971 20.4121 144.581 18.9757C145.19 17.5175 146.039 16.2552 147.127 15.1888C148.215 14.1223 149.488 13.3062 150.946 12.7403C152.426 12.1527 154.026 11.8589 155.745 11.8589C157.486 11.8589 159.086 12.1527 160.544 12.7403C162.002 13.3062 163.276 14.1223 164.364 15.1888C165.474 16.2552 166.323 17.5175 166.91 18.9757C167.52 20.4121 167.824 22.0009 167.824 23.742C167.824 25.4613 167.52 27.0609 166.91 28.5409C166.323 29.9991 165.485 31.2722 164.396 32.3604C163.33 33.4486 162.057 34.2974 160.577 34.9068C159.119 35.4944 157.508 35.7882 155.745 35.7882C153.982 35.7882 152.361 35.4944 150.881 34.9068C149.423 34.2974 148.15 33.4486 147.062 32.3604C145.973 31.2722 145.135 29.9991 144.548 28.5409C143.96 27.0609 143.666 25.4613 143.666 23.742ZM187.691 12.3159H192.196V36.3106L175.938 20.9997V35.168H171.433V11.1733L187.691 26.4842V12.3159ZM75.4088 46.9037H72.8179L72.3727 48.168H71.3132L73.5302 41.9712H74.7054L76.9223 48.168H75.8539L75.4088 46.9037ZM75.1239 46.0757L74.1178 43.1999L73.1028 46.0757H75.1239ZM78.9013 47.3489H80.9936V48.168H77.8863V41.9801H78.9013V47.3489ZM82.8574 47.3489H84.9496V48.168H81.8424V41.9801H82.8574V47.3489ZM89.7961 41.9801V42.8081H88.149V48.168H87.134V42.8081H85.4779V41.9801H89.7961ZM91.839 42.7992V44.6155L93.9758 44.6155V45.4435L91.839 45.4435V47.34L94.2429 47.34V48.168L90.824 48.168V41.9712L94.2429 41.9712V42.7992L91.839 42.7992ZM98.7072 48.168L97.2826 45.6928H96.508V48.168H95.4931V41.9801H97.6299C98.1047 41.9801 98.5054 42.0632 98.8318 42.2294C99.1642 42.3956 99.4106 42.6182 99.5708 42.8972C99.737 43.1761 99.8201 43.4878 99.8201 43.832C99.8201 44.2356 99.7014 44.6036 99.464 44.936C99.2325 45.2625 98.8734 45.4851 98.3867 45.6038L99.918 48.168H98.7072ZM96.508 44.8826H97.6299C98.0098 44.8826 98.2947 44.7877 98.4846 44.5977C98.6805 44.4078 98.7784 44.1525 98.7784 43.832C98.7784 43.5115 98.6834 43.2622 98.4935 43.0841C98.3036 42.9001 98.0157 42.8081 97.6299 42.8081H96.508V44.8826ZM104.333 48.168L102.908 45.6928H102.134V48.168H101.119V41.9801H103.255C103.73 41.9801 104.131 42.0632 104.457 42.2294C104.79 42.3956 105.036 42.6182 105.196 42.8972C105.362 43.1761 105.446 43.4878 105.446 43.832C105.446 44.2356 105.327 44.6036 105.089 44.936C104.858 45.2625 104.499 45.4851 104.012 45.6038L105.544 48.168H104.333ZM102.134 44.8826H103.255C103.635 44.8826 103.92 44.7877 104.11 44.5977C104.306 44.4078 104.404 44.1525 104.404 43.832C104.404 43.5115 104.309 43.2622 104.119 43.0841C103.929 42.9001 103.641 42.8081 103.255 42.8081H102.134V44.8826ZM110.475 46.9037H107.884L107.438 48.168H106.379L108.596 41.9712H109.771L111.988 48.168H110.92L110.475 46.9037ZM110.19 46.0757L109.184 43.1999L108.169 46.0757H110.19ZM113.967 41.9801V48.168H112.952V41.9801H113.967ZM120.383 48.168H119.368L116.315 43.5471V48.168H115.3V41.9712H116.315L119.368 46.5832V41.9712H120.383V48.168ZM128.356 43.8231C128.356 44.1377 128.282 44.4345 128.134 44.7135C127.985 44.9924 127.748 45.2209 127.421 45.399C127.095 45.5711 126.676 45.6572 126.166 45.6572H125.044V48.168H124.029V41.9801H126.166C126.641 41.9801 127.041 42.0632 127.368 42.2294C127.7 42.3897 127.947 42.6093 128.107 42.8883C128.273 43.1672 128.356 43.4789 128.356 43.8231ZM126.166 44.8292C126.552 44.8292 126.84 44.7431 127.03 44.571C127.219 44.3929 127.314 44.1436 127.314 43.8231C127.314 43.1465 126.932 42.8081 126.166 42.8081H125.044V44.8292H126.166ZM132.538 48.168L131.114 45.6928H130.339V48.168H129.324V41.9801H131.461C131.936 41.9801 132.337 42.0632 132.663 42.2294C132.995 42.3956 133.242 42.6182 133.402 42.8972C133.568 43.1761 133.651 43.4878 133.651 43.832C133.651 44.2356 133.533 44.6036 133.295 44.936C133.064 45.2625 132.705 45.4851 132.218 45.6038L133.749 48.168H132.538ZM130.339 44.8826H131.461C131.841 44.8826 132.126 44.7877 132.316 44.5977C132.512 44.4078 132.61 44.1525 132.61 43.832C132.61 43.5115 132.515 43.2622 132.325 43.0841C132.135 42.9001 131.847 42.8081 131.461 42.8081H130.339V44.8826ZM135.965 41.9801V48.168H134.95V41.9801H135.965ZM142.63 41.9801L140.307 48.168H139.131L136.799 41.9801H137.885L139.719 47.1263L141.562 41.9801H142.63ZM147.21 46.9037H144.619L144.174 48.168H143.114L145.331 41.9712H146.506L148.723 48.168H147.655L147.21 46.9037ZM146.925 46.0757L145.919 43.1999L144.904 46.0757H146.925ZM153.685 41.9801V42.8081H152.038V48.168H151.023V42.8081H149.367V41.9801H153.685ZM155.728 42.7992V44.6155H157.865V45.4435H155.728V47.34H158.132V48.168H154.713V41.9712H158.132V42.7992H155.728ZM162.71 47.3489H164.802V48.168H161.695V41.9801H162.71V47.3489ZM166.666 41.9801V48.168H165.651V41.9801H166.666ZM174.516 41.9801V48.168H173.501V43.93L171.613 48.168H170.91L169.013 43.93V48.168H167.998V41.9801H169.093L171.266 46.8325L173.429 41.9801H174.516ZM176.865 41.9801V48.168H175.85V41.9801H176.865ZM182.195 41.9801V42.8081H180.548V48.168H179.533V42.8081H177.877V41.9801H182.195ZM184.238 42.7992V44.6155H186.375V45.4435H184.238V47.34H186.642V48.168H183.223V41.9712H186.642V42.7992H184.238ZM189.913 41.9801C190.572 41.9801 191.147 42.1077 191.64 42.363C192.139 42.6123 192.522 42.9743 192.789 43.4492C193.062 43.9181 193.198 44.4671 193.198 45.0963C193.198 45.7255 193.062 46.2715 192.789 46.7345C192.522 47.1975 192.139 47.5536 191.64 47.8029C191.147 48.0463 190.572 48.168 189.913 48.168L187.892 48.168V41.9801L189.913 41.9801ZM189.913 47.34C190.637 47.34 191.192 47.1441 191.578 46.7523C191.964 46.3606 192.156 45.8086 192.156 45.0963C192.156 44.3781 191.964 43.8172 191.578 43.4136C191.192 43.0099 190.637 42.8081 189.913 42.8081H188.907V47.34H189.913Z" fill="url(#paint1_linear_2993_387)"/>
<defs>
<linearGradient id="paint0_linear_2993_387" x1="-1.77211" y1="25.0237" x2="59.0326" y2="26.3581" gradientUnits="userSpaceOnUse">
<stop stop-color="#CFCECC"/>
<stop offset="0.0001" stop-color="#5C6262"/>
<stop offset="0.125142" stop-color="#808485"/>
<stop offset="0.325459" stop-color="#BBBFC2"/>
<stop offset="0.624041" stop-color="#ECE5E5"/>
<stop offset="0.999893" stop-color="#C0C1C5"/>
</linearGradient>
<linearGradient id="paint1_linear_2993_387" x1="65.9393" y1="25.1387" x2="197.262" y2="31.3871" gradientUnits="userSpaceOnUse">
<stop stop-color="#CFCECC"/>
<stop offset="0.0001" stop-color="#5C6262"/>
<stop offset="0.125142" stop-color="#808485"/>
<stop offset="0.325459" stop-color="#BBBFC2"/>
<stop offset="0.624041" stop-color="#ECE5E5"/>
<stop offset="0.999893" stop-color="#C0C1C5"/>
</linearGradient>
</defs>
</svg>
