<svg width="192" height="47" viewBox="0 0 192 47" fill="none" xmlns="http://www.w3.org/2000/svg">
<path fill-rule="evenodd" clip-rule="evenodd" d="M20.08 4.41699V32.3095C20.08 33.1547 19.6863 33.9515 19.0152 34.4651L9.1364 42.0245C8.05575 42.8515 6.52981 42.7504 5.56762 41.7882L0.795041 37.0157C-0.122836 36.0978 -0.262347 34.6585 0.462159 33.5814L20.08 4.41699ZM22.5351 4.41702V32.3096C22.5351 33.1547 22.9287 33.9516 23.5999 34.4652L33.4786 42.0246C34.5593 42.8515 36.0852 42.7505 37.0474 41.7883L41.82 37.0157C42.7379 36.0978 42.8774 34.6585 42.1529 33.5815L22.5351 4.41702ZM18.1612 29.6156V12.5986L6.09797 30.2166C5.3547 31.3021 5.4969 32.7643 6.43539 33.6863L8.28643 35.5048C9.2443 36.4458 10.7463 36.545 11.8196 35.7381L17.0779 31.7852C17.76 31.2724 18.1612 30.4688 18.1612 29.6156ZM24.6199 12.5986V29.6156C24.6199 30.4688 25.0212 31.2724 25.7032 31.7852L30.9616 35.7381C32.0349 36.545 33.5369 36.4458 34.4948 35.5048L36.3458 33.6863C37.2843 32.7643 37.4265 31.3021 36.6832 30.2166L24.6199 12.5986Z" fill="white"/>
<path d="M64.5333 29.8211L65.087 26.1406H76.031L76.5847 29.8211H64.5333ZM70.4939 19.5937L67.0739 27.4434L67.1716 28.4857L64.175 35H58.931L70.4939 10.8646L82.0567 35H76.7802L73.8487 28.6811L73.9139 27.5086L70.4939 19.5937ZM83.8461 29.1046V25.424H90.6535V29.1046H83.8461ZM92.6323 16.4017V12.2H109.569V16.4017H103.413V35H98.7557V16.4017H92.6323ZM115.375 24.968V20.7663H132.117V24.968H115.375ZM129.153 12.2H133.811V35H129.153V12.2ZM113.844 12.2H118.502V35H113.844V12.2ZM143.962 23.6C143.962 25.0549 144.266 26.3469 144.874 27.476C145.482 28.6051 146.318 29.4954 147.382 30.1469C148.446 30.7983 149.684 31.124 151.095 31.124C152.507 31.124 153.745 30.7983 154.809 30.1469C155.873 29.4954 156.698 28.6051 157.284 27.476C157.892 26.3469 158.196 25.0549 158.196 23.6C158.196 22.1451 157.903 20.8531 157.317 19.724C156.73 18.5949 155.905 17.7046 154.841 17.0531C153.777 16.4017 152.529 16.076 151.095 16.076C149.684 16.076 148.446 16.4017 147.382 17.0531C146.318 17.7046 145.482 18.5949 144.874 19.724C144.266 20.8531 143.962 22.1451 143.962 23.6ZM139.044 23.6C139.044 21.8629 139.348 20.2777 139.956 18.8446C140.564 17.3897 141.411 16.1303 142.497 15.0663C143.582 14.0023 144.853 13.188 146.307 12.6234C147.784 12.0371 149.38 11.744 151.095 11.744C152.833 11.744 154.429 12.0371 155.883 12.6234C157.338 13.188 158.609 14.0023 159.694 15.0663C160.802 16.1303 161.649 17.3897 162.235 18.8446C162.843 20.2777 163.147 21.8629 163.147 23.6C163.147 25.3154 162.843 26.9114 162.235 28.388C161.649 29.8429 160.813 31.1131 159.727 32.1989C158.663 33.2846 157.393 34.1314 155.916 34.7394C154.461 35.3257 152.854 35.6189 151.095 35.6189C149.337 35.6189 147.719 35.3257 146.242 34.7394C144.787 34.1314 143.517 33.2846 142.431 32.1989C141.346 31.1131 140.51 29.8429 139.923 28.388C139.337 26.9114 139.044 25.3154 139.044 23.6ZM184.597 12.2H189.092V36.14L172.871 20.864V35H168.376V11.06L184.597 26.336V12.2Z" fill="white"/>
</svg>
