<svg width="47" height="40" viewBox="0 0 47 40" fill="none" xmlns="http://www.w3.org/2000/svg">
<path fill-rule="evenodd" clip-rule="evenodd" d="M22.2204 0V29.5978C22.2204 30.0281 22.0104 30.4339 21.6524 30.6954L9.3049 39.7155C8.72849 40.1366 7.91457 40.0851 7.40135 39.5952L0.424065 32.9343C-0.0655189 32.4669 -0.139933 31.734 0.24651 31.1856L22.2204 0ZM20.1376 26.8143V8.47407L6.33997 27.7112C5.94352 28.2639 6.01936 29.0085 6.51994 29.4779L10.3423 33.0627C10.8532 33.5419 11.6544 33.5924 12.2269 33.1816L19.5598 27.919C19.9236 27.658 20.1376 27.2488 20.1376 26.8143Z" fill="black"/>
<path fill-rule="evenodd" clip-rule="evenodd" d="M24.4124 0V29.5978C24.4124 30.0281 24.6224 30.4339 24.9804 30.6954L37.3279 39.7155C37.9043 40.1366 38.7182 40.0851 39.2315 39.5952L46.2087 32.9343C46.6983 32.4669 46.7727 31.734 46.3863 31.1856L24.4124 0ZM26.4952 26.8143V8.47407L40.2928 27.7112C40.6893 28.2639 40.6134 29.0085 40.1129 29.4779L36.2905 33.0627C35.7796 33.5419 34.9784 33.5924 34.4059 33.1816L27.073 27.919C26.7092 27.658 26.4952 27.2488 26.4952 26.8143Z" fill="black"/>
</svg>
