<svg width="314" height="70" viewBox="0 0 314 70" fill="none" xmlns="http://www.w3.org/2000/svg">
<g clip-path="url(#clip0_1601_196)">
<path d="M93.6044 33.3941H82.0964L79.9013 38.7054H74.0234L85.0709 13.9194H90.7362L101.819 38.7054H95.7999L93.6044 33.3941ZM91.7986 29.0389L87.8684 19.5494L83.9378 29.0389H91.7986Z" fill="#1E538F"/>
<path d="M130.8 38.7054L126.02 31.8008H125.736H120.744V38.7054H115.008V13.9194H125.736C127.932 13.9194 129.832 14.2853 131.437 15.0171C133.066 15.7489 134.317 16.7875 135.191 18.133C136.064 19.4786 136.5 21.072 136.5 22.9132C136.5 24.7545 136.052 26.3478 135.155 27.6934C134.282 29.0153 133.031 30.0303 131.402 30.7385L136.961 38.7054H130.8ZM130.694 22.9132C130.694 21.5205 130.245 20.4582 129.348 19.7264C128.451 18.9711 127.141 18.5934 125.418 18.5934H120.744V27.233H125.418C127.141 27.233 128.451 26.8554 129.348 26.1C130.245 25.3446 130.694 24.2823 130.694 22.9132Z" fill="#1E538F"/>
<path d="M156.463 18.5934H148.531V13.9194H170.131V18.5934H162.199V38.7054H156.463V18.5934Z" fill="#1E538F"/>
<path d="M194.276 13.9194C197.486 13.9194 200.012 14.6866 201.853 16.221C203.695 17.7554 204.615 19.8681 204.615 22.5591C204.615 25.2502 203.695 27.3629 201.853 28.8972C200.012 30.4316 197.486 31.1988 194.276 31.1988H188.15V38.7054H184.609V13.9194H194.276ZM194.17 28.1183C196.412 28.1183 198.124 27.6462 199.304 26.7019C200.484 25.7341 201.074 24.3531 201.074 22.5591C201.074 20.7651 200.484 19.3959 199.304 18.4517C198.124 17.4839 196.412 17 194.17 17H188.15V28.1183H194.17Z" fill="#1E538F"/>
<path d="M234.983 32.5089H221.811L219.084 38.7054H215.438L226.662 13.9194H230.167L241.427 38.7054H237.709L234.983 32.5089ZM233.743 29.6762L228.397 17.5311L223.05 29.6762H233.743Z" fill="#1E538F"/>
<path d="M272.321 38.7054L266.975 31.0926C266.313 31.1398 265.794 31.1634 265.417 31.1634H259.291V38.7054H255.75V13.9194H265.417C268.627 13.9194 271.153 14.6866 272.994 16.221C274.835 17.7554 275.756 19.8681 275.756 22.5591C275.756 24.4712 275.284 26.1 274.339 27.4455C273.395 28.791 272.049 29.7706 270.303 30.3844L276.181 38.7054H272.321ZM265.31 28.1537C267.553 28.1537 269.264 27.6697 270.444 26.7019C271.625 25.7341 272.215 24.3531 272.215 22.5591C272.215 20.7651 271.625 19.3959 270.444 18.4517C269.264 17.4839 267.553 17 265.31 17H259.291V28.1537H265.31Z" fill="#1E538F"/>
<path d="M300.182 27.6934L295.65 32.2965V38.7054H292.109V13.9194H295.65V27.7642L309.106 13.9194H313.142L302.555 25.0731L313.815 38.7054H309.672L300.182 27.6934Z" fill="#1E538F"/>
<path d="M47.9856 13.1741C49.0029 13.5132 49.952 14.1235 50.7657 15.0051C52.8681 17.3106 56.1227 18.1922 58.0216 18.4634C57.3436 20.2943 56.462 23.5493 57.4114 26.4652C57.7502 27.5501 57.8181 28.5673 57.6824 29.5844C58.3609 30.1269 58.8354 30.8051 59.1746 31.551C59.9205 29.7879 59.988 27.7536 59.3099 25.787C58.3609 22.939 59.717 19.4128 60.1915 18.3956C60.5307 17.5819 59.988 16.5647 59.1068 16.4969C58.0216 16.3613 54.2921 15.8188 52.2575 13.581C50.9014 12.0214 49.0704 11.072 47.1719 10.8008C47.6464 11.6145 47.9178 12.3604 47.9856 13.1741Z" fill="#E77F33"/>
<path d="M0.989474 25.9214C0.311361 27.888 0.446986 29.9901 1.19291 31.821C1.59977 31.1429 2.14226 30.6004 2.75256 30.1257C2.48132 28.9729 2.54913 27.8202 2.95599 26.5995C3.90535 23.6159 3.0238 20.3609 2.34569 18.5978C4.2444 18.2588 7.49932 17.445 9.60147 15.1395C10.483 14.1901 11.5002 13.512 12.653 13.2408C12.7886 12.427 13.0599 11.6811 13.4667 11.0708C11.5002 11.2742 9.60147 12.2236 8.10966 13.851C6.07532 16.0888 2.34569 16.6991 1.26072 16.7669C0.311361 16.8347 -0.231127 17.8519 0.17574 18.6656C0.582606 19.5472 1.93883 23.0734 0.989474 25.9214Z" fill="#E77F33"/>
<path d="M42.4827 60.7089C41.7368 60.7089 40.9908 60.5736 40.3127 60.2344C39.4311 61.1838 38.2783 61.8619 36.8543 62.2007C33.8028 62.8113 31.4294 65.2522 30.2088 66.7444C28.9882 65.2522 26.6148 62.8113 23.5633 62.2007C22.2071 61.9297 21.0543 61.2517 20.1727 60.3022C19.5625 60.5736 18.8844 60.7089 18.1384 60.7089C18.0706 60.7089 17.935 60.7089 17.8672 60.7089C19.0878 62.4721 20.9187 63.7604 23.1565 64.1674C26.1402 64.7777 28.4457 67.6934 29.1238 68.575C29.6663 69.3209 30.8191 69.3209 31.3616 68.575C32.0397 67.6934 34.3453 64.7777 37.329 64.1674C39.4311 63.7604 41.3298 62.4721 42.4827 60.7089Z" fill="#2B9E27"/>
<path d="M60.1866 50.6719C59.7121 49.6546 58.3555 46.1964 59.305 43.2803C60.0509 41.0427 59.8473 38.8049 58.8305 36.8384C58.4234 37.4487 57.9489 37.9912 57.3386 38.4658C57.8132 39.7542 57.8132 41.2461 57.3386 42.67C56.3892 45.6537 57.2708 48.9087 57.9489 50.6719C56.05 51.0107 52.7949 51.8245 50.6929 54.13C49.8792 55.0116 48.9297 55.6222 47.9128 56.0289C47.7772 56.8427 47.5058 57.5886 47.0312 58.2666C48.9976 57.9952 50.8286 57.0462 52.2526 55.4865C54.2868 53.2488 57.9489 52.6382 59.1014 52.5704C59.983 52.5029 60.5932 51.4856 60.1866 50.6719Z" fill="#2B9E27"/>
<path d="M12.6471 56.0978C11.4943 55.7586 10.4772 55.1484 9.59562 54.1311C7.49347 51.8255 4.23854 50.9439 2.33982 50.673C3.01793 48.8419 3.89947 45.5869 2.95012 42.6711C2.54325 41.4507 2.47544 40.23 2.74668 39.145C2.13639 38.6703 1.5939 38.1278 1.18703 37.4497C0.44111 39.2806 0.305485 41.3149 0.983598 43.3492C1.93295 46.1975 0.57673 49.7235 0.102052 50.7408C-0.237003 51.5546 0.305486 52.5714 1.18703 52.6393C2.27201 52.775 6.00162 53.3173 8.03596 55.5551C9.52781 57.1826 11.4265 58.132 13.5286 58.3355C13.1218 57.6575 12.7827 56.9116 12.6471 56.0978Z" fill="#2B9E27"/>
<path d="M18.0681 8.29038C18.814 8.29038 19.56 8.42603 20.2381 8.69725C21.1196 7.81574 22.2046 7.2054 23.493 6.93418C26.5445 6.32388 28.9179 3.88267 30.1385 2.39083C31.3591 3.88267 33.7325 6.32388 36.784 6.93418C38.1402 7.2054 39.293 7.81574 40.1068 8.76506C40.7849 8.42603 41.5308 8.29038 42.2768 8.29038C41.0561 6.66291 39.293 5.44233 37.1231 4.96765C34.1394 4.35735 31.8338 1.44148 31.1557 0.55993C30.6132 -0.185992 29.4604 -0.185992 28.9179 0.55993C28.2398 1.44148 25.9342 4.35735 22.9505 4.96765C20.7806 5.44233 19.0175 6.59511 17.7969 8.29038C18.0003 8.29038 18.0681 8.29038 18.0681 8.29038Z" fill="#E77F33"/>
<path d="M6.06713 37.6533C4.37186 37.6533 3.01562 36.2971 3.01562 34.6018C3.01562 32.9065 4.37186 31.5503 6.06713 31.5503C7.76239 31.5503 9.11864 32.9065 9.11864 34.6018C9.11864 36.2971 7.76239 37.6533 6.06713 37.6533Z" fill="#1E538F"/>
<path d="M18.2078 16.9038C16.5125 16.9038 15.1562 15.5476 15.1562 13.8523C15.1562 12.157 16.5125 10.8008 18.2078 10.8008C19.903 10.8008 21.2593 12.157 21.2593 13.8523C21.2593 15.5476 19.903 16.9038 18.2078 16.9038Z" fill="#1E538F"/>
<path d="M42.6142 16.9038C40.9187 16.9038 39.5625 15.5476 39.5625 13.8523C39.5625 12.157 40.9187 10.8008 42.6142 10.8008C44.3091 10.8008 45.6656 12.157 45.6656 13.8523C45.6656 15.5476 44.2417 16.9038 42.6142 16.9038Z" fill="#1E538F"/>
<path d="M54.2155 36.9746C52.5202 36.9746 51.1641 35.6184 51.1641 33.9231C51.1641 32.2278 52.5202 30.8716 54.2155 30.8716C55.9109 30.8716 57.267 32.2278 57.267 33.9231C57.267 35.6184 55.9109 36.9746 54.2155 36.9746Z" fill="#1E538F"/>
<path d="M42.6142 58.1991C40.9187 58.1991 39.5625 56.843 39.5625 55.1477C39.5625 53.4523 40.9187 52.0962 42.6142 52.0962C44.3091 52.0962 45.6656 53.4523 45.6656 55.1477C45.6656 56.843 44.2417 58.1991 42.6142 58.1991Z" fill="#1E538F"/>
<path d="M18.2078 58.1991C16.5125 58.1991 15.1562 56.843 15.1562 55.1477C15.1562 53.4523 16.5125 52.0962 18.2078 52.0962C19.903 52.0962 21.2593 53.4523 21.2593 55.1477C21.2593 56.843 19.903 58.1991 18.2078 58.1991Z" fill="#1E538F"/>
<path d="M41.2601 49.7908V43.2129L32.8516 48.1632L38.5477 51.3504C39.2258 50.5367 40.1752 49.9943 41.2601 49.7908Z" fill="#1E538F"/>
<path d="M43.9766 26.6662L50.2152 30.1246C51.1646 29.1752 52.3851 28.4971 53.809 28.4293C52.6564 24.0216 50.283 20.0886 47.0959 16.9692C46.35 18.0542 45.2648 18.8001 43.9766 19.1392V26.6662Z" fill="#1E538F"/>
<path d="M48.5852 33.9919C48.5852 33.4494 48.6531 32.9747 48.7883 32.5001L43.9062 29.7876V38.4674L48.7883 35.5515C48.7209 35.0769 48.5852 34.5344 48.5852 33.9919Z" fill="#1E538F"/>
<path d="M30.1431 46.6035L41.2641 40.0258V28.2266L30.5499 22.2593L11.3594 33.1769C11.495 33.6516 11.5628 34.1262 11.5628 34.6009C11.5628 35.0756 11.495 35.5502 11.3594 36.0249L30.1431 46.6035Z" fill="#1E538F"/>
<path d="M41.2673 25.1755V19.276C40.2502 19.0047 39.3008 18.4622 38.5549 17.7163L33.2656 20.7L41.2673 25.1755Z" fill="#1E538F"/>
<path d="M10.0709 30.804L27.7695 20.768L22.209 17.6486C21.1919 18.7336 19.7678 19.4117 18.1404 19.4117C16.106 19.4117 14.4108 18.3267 13.3936 16.7671C9.86739 20.0221 7.35841 24.2942 6.27344 29.1087C7.76525 29.1087 9.12149 29.7868 10.0709 30.804Z" fill="#1E538F"/>
<path d="M37.1963 53.6572L30.1439 49.7241L23.4306 53.6572C23.5662 54.1321 23.634 54.6745 23.634 55.149C23.634 56.1663 23.3628 57.1157 22.8203 57.9973C25.1259 58.6754 27.4993 59.0821 30.0083 59.0821C32.6529 59.0821 35.2297 58.6754 37.6031 57.8616C37.1285 57.0479 36.925 56.1663 36.925 55.149C36.9928 54.6745 37.0606 54.1321 37.1963 53.6572Z" fill="#1E538F"/>
<path d="M43.9766 41.5849V49.7903C45.3327 50.1291 46.4178 51.0107 47.1637 52.0958C50.6219 48.773 53.0631 44.3654 54.0804 39.4829C52.5886 39.4829 51.2321 38.8726 50.283 37.8555L43.9766 41.5849Z" fill="#1E538F"/>
<path d="M22.1412 51.2826L27.4305 48.1633L10.0709 38.3984C9.12149 39.4156 7.76525 40.0937 6.27344 40.1616C7.35841 44.9761 9.86739 49.1806 13.3258 52.4352C14.2751 50.7402 16.106 49.6551 18.1404 49.6551C19.7 49.5873 21.1241 50.2653 22.1412 51.2826Z" fill="#1E538F"/>
<path d="M23.4903 15.2754L30.4748 19.2084L37.1203 15.411C36.9847 14.9363 36.9169 14.3938 36.9169 13.9191C36.9169 13.0376 37.1203 12.1561 37.5272 11.4101C35.1538 10.6642 32.6448 10.2573 30.068 10.2573C27.6268 10.2573 25.2534 10.5964 23.0156 11.2745C23.4225 12.0882 23.6937 12.9698 23.6937 13.9191C23.6937 14.326 23.6259 14.8007 23.4903 15.2754Z" fill="#1E538F"/>
<path d="M79.8256 54.36H80.5375L77.6176 47.9724H76.9512L74.0312 54.36H74.7341L75.5003 52.6539H79.0594L79.8256 54.36ZM75.7469 52.1062L77.2801 48.6753L78.8128 52.1062H75.7469ZM82.5523 54.36H83.2274V47.9724H82.5523V54.36ZM94.5563 54.0315L93.6436 53.092C93.8993 52.6903 94.0908 52.1976 94.2096 51.6225L93.68 51.4583C93.589 51.9419 93.443 52.3527 93.2514 52.6903L91.4994 50.8837C92.5395 50.2813 92.923 49.8341 92.923 49.1953C92.923 48.4015 92.3388 47.9269 91.4353 47.9269C90.4499 47.9269 89.8202 48.4747 89.8202 49.2868C89.8202 49.7795 90.0026 50.1626 90.6232 50.8013C89.4553 51.4765 89.0172 52.0333 89.0172 52.7908C89.0172 53.7581 89.9116 54.415 91.1618 54.415C92.0285 54.415 92.7587 54.123 93.2969 53.5479L94.1823 54.4605L94.5563 54.0315ZM91.4353 48.4106C92.0285 48.4106 92.3661 48.7299 92.3661 49.2044C92.3661 49.6608 92.0649 49.9801 91.1432 50.5093C90.5595 49.9164 90.4225 49.6517 90.4225 49.2777C90.4225 48.7663 90.7965 48.4106 91.4353 48.4106ZM91.1982 53.8764C90.2765 53.8764 89.656 53.4205 89.656 52.7267C89.656 52.1612 89.9662 51.7595 90.9881 51.1757L92.9139 53.1557C92.4758 53.6393 91.8916 53.8764 91.1982 53.8764ZM105.12 54.36L103.56 52.1703C104.49 51.8691 105.02 51.1662 105.02 50.1626C105.02 48.7941 104.034 47.9724 102.41 47.9724H100.019V54.36H100.694V52.3345H102.41C102.592 52.3345 102.757 52.3254 102.921 52.3072L104.381 54.36H105.12ZM102.392 51.7595H100.694V48.5566H102.392C103.669 48.5566 104.344 49.1407 104.344 50.1626C104.344 51.1662 103.669 51.7595 102.392 51.7595ZM109.397 54.4059C110.802 54.4059 111.833 53.3837 111.833 51.9601C111.833 50.537 110.802 49.5238 109.397 49.5238C107.991 49.5238 106.951 50.537 106.951 51.9601C106.951 53.3837 107.991 54.4059 109.397 54.4059ZM109.397 53.8309C108.375 53.8309 107.608 53.0825 107.608 51.9601C107.608 50.8377 108.375 50.0898 109.397 50.0898C110.418 50.0898 111.176 50.8377 111.176 51.9601C111.176 53.0825 110.418 53.8309 109.397 53.8309ZM116.587 49.5238C115.82 49.5238 115.163 49.8523 114.762 50.4729V47.5894H114.114V54.36H114.734V53.4114C115.127 54.0592 115.793 54.4059 116.587 54.4059C117.956 54.4059 118.978 53.4114 118.978 51.9601C118.978 50.5093 117.956 49.5238 116.587 49.5238ZM116.541 53.8309C115.519 53.8309 114.753 53.0825 114.753 51.9601C114.753 50.8377 115.519 50.0898 116.541 50.0898C117.554 50.0898 118.33 50.8377 118.33 51.9601C118.33 53.0825 117.554 53.8309 116.541 53.8309ZM123.218 54.4059C124.624 54.4059 125.655 53.3837 125.655 51.9601C125.655 50.537 124.624 49.5238 123.218 49.5238C121.813 49.5238 120.773 50.537 120.773 51.9601C120.773 53.3837 121.813 54.4059 123.218 54.4059ZM123.218 53.8309C122.196 53.8309 121.43 53.0825 121.43 51.9601C121.43 50.8377 122.196 50.0898 123.218 50.0898C124.24 50.0898 124.998 50.8377 124.998 51.9601C124.998 53.0825 124.24 53.8309 123.218 53.8309ZM130.235 53.6029C130.053 53.7672 129.788 53.8491 129.523 53.8491C128.985 53.8491 128.693 53.5388 128.693 52.9733V50.108H130.153V49.5602H128.693V48.5111H128.045V49.5602H127.187V50.108H128.045V53.0097C128.045 53.895 128.547 54.4059 129.45 54.4059C129.824 54.4059 130.208 54.2963 130.463 54.0683L130.235 53.6029ZM132.929 48.5111C133.203 48.5111 133.404 48.3009 133.404 48.0366C133.404 47.79 133.194 47.5894 132.929 47.5894C132.664 47.5894 132.455 47.7991 132.455 48.0457C132.455 48.3009 132.664 48.5111 132.929 48.5111ZM132.601 54.36H133.249V49.5602H132.601V54.36ZM137.999 54.4059C138.811 54.4059 139.495 54.0774 139.879 53.4569L139.395 53.1284C139.066 53.612 138.556 53.8309 137.999 53.8309C136.95 53.8309 136.183 53.092 136.183 51.9601C136.183 50.8377 136.95 50.0898 137.999 50.0898C138.556 50.0898 139.066 50.3177 139.395 50.8013L139.879 50.4729C139.495 49.8432 138.811 49.5238 137.999 49.5238C136.566 49.5238 135.526 50.5275 135.526 51.9601C135.526 53.3928 136.566 54.4059 137.999 54.4059ZM143.396 54.4059C144.646 54.4059 145.376 53.8673 145.376 53.037C145.376 51.1939 142.264 52.1703 142.264 50.8746C142.264 50.4183 142.648 50.0807 143.515 50.0807C144.007 50.0807 144.509 50.199 144.929 50.4911L145.212 49.971C144.81 49.6972 144.135 49.5238 143.515 49.5238C142.292 49.5238 141.617 50.108 141.617 50.8928C141.617 52.7908 144.728 51.805 144.728 53.0552C144.728 53.5297 144.354 53.84 143.442 53.84C142.766 53.84 142.118 53.6029 141.735 53.3018L141.443 53.8127C141.836 54.1503 142.602 54.4059 143.396 54.4059ZM152.256 54.36H152.932V48.5566H155.176V47.9724H150.011V48.5566H152.256V54.36ZM160.766 51.9601C160.766 50.5184 159.789 49.5238 158.439 49.5238C157.088 49.5238 156.094 50.537 156.094 51.9601C156.094 53.3837 157.116 54.4059 158.612 54.4059C159.37 54.4059 160.036 54.1321 160.465 53.6211L160.1 53.2012C159.735 53.6211 159.215 53.8309 158.63 53.8309C157.581 53.8309 156.815 53.1648 156.741 52.1612H160.756C160.756 52.088 160.766 52.0151 160.766 51.9601ZM158.439 50.0807C159.379 50.0807 160.063 50.7376 160.145 51.6776H156.741C156.824 50.7376 157.508 50.0807 158.439 50.0807ZM165.032 54.4059C165.844 54.4059 166.528 54.0774 166.912 53.4569L166.428 53.1284C166.099 53.612 165.589 53.8309 165.032 53.8309C163.983 53.8309 163.216 53.092 163.216 51.9601C163.216 50.8377 163.983 50.0898 165.032 50.0898C165.589 50.0898 166.099 50.3177 166.428 50.8013L166.912 50.4729C166.528 49.8432 165.844 49.5238 165.032 49.5238C163.599 49.5238 162.559 50.5275 162.559 51.9601C162.559 53.3928 163.599 54.4059 165.032 54.4059ZM171.517 49.5238C170.705 49.5238 170.075 49.8432 169.719 50.4V47.5894H169.071V54.36H169.719V51.8418C169.719 50.7467 170.367 50.108 171.398 50.108C172.311 50.108 172.84 50.628 172.84 51.6407V54.36H173.488V51.577C173.488 50.199 172.685 49.5238 171.517 49.5238ZM178.65 49.5238C177.82 49.5238 177.172 49.8614 176.826 50.4456V49.5602H176.205V54.36H176.853V51.8418C176.853 50.7467 177.501 50.108 178.532 50.108C179.444 50.108 179.974 50.628 179.974 51.6407V54.36H180.622V51.577C180.622 50.199 179.819 49.5238 178.65 49.5238ZM185.318 54.4059C186.723 54.4059 187.755 53.3837 187.755 51.9601C187.755 50.537 186.723 49.5238 185.318 49.5238C183.913 49.5238 182.873 50.537 182.873 51.9601C182.873 53.3837 183.913 54.4059 185.318 54.4059ZM185.318 53.8309C184.296 53.8309 183.53 53.0825 183.53 51.9601C183.53 50.8377 184.296 50.0898 185.318 50.0898C186.34 50.0898 187.098 50.8377 187.098 51.9601C187.098 53.0825 186.34 53.8309 185.318 53.8309ZM190.035 54.36H190.683V47.5894H190.035V54.36ZM195.406 54.4059C196.811 54.4059 197.842 53.3837 197.842 51.9601C197.842 50.537 196.811 49.5238 195.406 49.5238C194.001 49.5238 192.961 50.537 192.961 51.9601C192.961 53.3837 194.001 54.4059 195.406 54.4059ZM195.406 53.8309C194.384 53.8309 193.618 53.0825 193.618 51.9601C193.618 50.8377 194.384 50.0898 195.406 50.0898C196.428 50.0898 197.185 50.8377 197.185 51.9601C197.185 53.0825 196.428 53.8309 195.406 53.8309ZM203.947 49.5602V50.482C203.545 49.8523 202.852 49.5238 202.049 49.5238C200.68 49.5238 199.64 50.4638 199.64 51.8418C199.64 53.2194 200.68 54.1776 202.049 54.1776C202.834 54.1776 203.518 53.8582 203.919 53.2471V53.8582C203.919 55.0447 203.363 55.6011 202.149 55.6011C201.41 55.6011 200.716 55.355 200.26 54.9442L199.932 55.4369C200.434 55.9114 201.291 56.1762 202.167 56.1762C203.755 56.1762 204.567 55.4278 204.567 53.7763V49.5602H203.947ZM202.113 53.6029C201.054 53.6029 200.297 52.8818 200.297 51.8418C200.297 50.8013 201.054 50.0898 202.113 50.0898C203.171 50.0898 203.938 50.8013 203.938 51.8418C203.938 52.8818 203.171 53.6029 202.113 53.6029ZM210.732 49.5602L208.925 53.6393L207.118 49.5602H206.443L208.587 54.3509L208.377 54.8163C208.104 55.4187 207.812 55.6193 207.383 55.6193C207.036 55.6193 206.744 55.4919 206.507 55.2544L206.206 55.7381C206.498 56.0301 206.926 56.1762 207.374 56.1762C208.058 56.1762 208.569 55.875 208.971 54.9351L211.37 49.5602H210.732ZM219.115 47.9724H216.724V54.36H217.4V52.3436H219.115C220.74 52.3436 221.725 51.5224 221.725 50.1626C221.725 48.7941 220.74 47.9724 219.115 47.9724ZM219.097 51.7504H217.4V48.5566H219.097C220.374 48.5566 221.05 49.1407 221.05 50.1626C221.05 51.1662 220.374 51.7504 219.097 51.7504ZM225.641 49.5238C224.883 49.5238 224.172 49.7613 223.688 50.1717L223.98 50.6553C224.372 50.3086 224.956 50.0898 225.577 50.0898C226.471 50.0898 226.936 50.537 226.936 51.3582V51.6498H225.413C224.035 51.6498 223.56 52.2704 223.56 53.0097C223.56 53.84 224.226 54.4059 225.312 54.4059C226.106 54.4059 226.672 54.1048 226.964 53.612V54.36H227.584V51.3855C227.584 50.1444 226.882 49.5238 225.641 49.5238ZM225.413 53.895C224.646 53.895 224.199 53.5479 224.199 52.9915C224.199 52.4988 224.5 52.1339 225.431 52.1339H226.936V52.9183C226.681 53.5479 226.143 53.895 225.413 53.895ZM230.923 50.5002V49.5602H230.302V54.36H230.95V51.9146C230.95 50.7831 231.562 50.1444 232.565 50.1444C232.611 50.1444 232.666 50.1535 232.72 50.1535V49.5238C231.835 49.5238 231.224 49.8614 230.923 50.5002ZM238.566 54.36H239.359L237.115 51.5224L239.168 49.5602H238.365L235.5 52.1794V47.5894H234.852V54.36H235.5V52.9915L236.631 51.951L238.566 54.36ZM241.452 53.4114C241.179 53.4114 240.969 53.6211 240.969 53.9041C240.969 54.1412 241.106 54.3145 241.297 54.3695L240.987 55.6925H241.425L241.808 54.4332C241.899 54.1776 241.936 54.0592 241.936 53.9041C241.936 53.6302 241.735 53.4114 241.452 53.4114ZM247.754 54.36H248.429V47.9724H247.754V54.36ZM250.973 52.1703H253.364V51.6043H250.973V52.1703ZM260.581 47.9724V50.8195H256.584V47.9724H255.908V54.36H256.584V51.4128H260.581V54.36H261.247V47.9724H260.581ZM267.83 49.5602V52.0789C267.83 53.1739 267.201 53.8218 266.197 53.8218C265.285 53.8218 264.755 53.3018 264.755 52.2795V49.5602H264.107V52.3436C264.107 53.7213 264.91 54.4059 266.133 54.4059C266.9 54.4059 267.52 54.0683 267.858 53.4842V54.36H268.478V49.5602H267.83ZM273.724 49.5238C272.957 49.5238 272.3 49.8523 271.899 50.4729V47.5894H271.251V54.36H271.872V53.4114C272.264 54.0592 272.93 54.4059 273.724 54.4059C275.093 54.4059 276.114 53.4114 276.114 51.9601C276.114 50.5093 275.093 49.5238 273.724 49.5238ZM273.678 53.8309C272.656 53.8309 271.89 53.0825 271.89 51.9601C271.89 50.8377 272.656 50.0898 273.678 50.0898C274.691 50.0898 275.467 50.8377 275.467 51.9601C275.467 53.0825 274.691 53.8309 273.678 53.8309ZM285.573 47.9178C283.054 47.9178 281.311 49.6153 281.311 52.0424C281.311 54.4605 283.027 56.1853 285.536 56.1853C286.147 56.1853 286.896 56.0483 287.443 55.7654L287.288 55.3181C286.759 55.592 286.083 55.7198 285.536 55.7198C283.318 55.7198 281.813 54.2053 281.813 52.0424C281.813 49.8796 283.336 48.3832 285.573 48.3832C287.78 48.3832 289.323 49.8068 289.323 51.951C289.323 53.183 288.958 53.8859 288.392 53.8859C288.082 53.8859 287.826 53.703 287.826 53.1921V49.7336H287.233V50.6553C286.859 50.0439 286.211 49.6972 285.426 49.6972C284.13 49.6972 283.163 50.6735 283.163 52.0424C283.163 53.4205 284.13 54.4059 285.426 54.4059C286.229 54.4059 286.886 54.0406 287.251 53.4114C287.288 54.0406 287.689 54.4059 288.282 54.4059C289.222 54.4059 289.797 53.4933 289.797 51.9419C289.797 49.5511 288.045 47.9178 285.573 47.9178ZM285.508 53.8764C284.496 53.8764 283.765 53.1375 283.765 52.0424C283.765 50.9474 284.496 50.2267 285.508 50.2267C286.494 50.2267 287.242 50.9383 287.242 52.0424C287.242 53.1557 286.494 53.8764 285.508 53.8764ZM295.609 54.36H296.285V47.9724H295.609V54.36ZM299.321 54.36H299.996V47.9724H299.321V54.36ZM304.794 54.415C306.427 54.415 307.176 53.612 307.176 52.6721C307.176 50.345 303.243 51.4037 303.243 49.6517C303.243 49.0129 303.763 48.4929 304.931 48.4929C305.496 48.4929 306.135 48.6662 306.682 49.022L306.911 48.4838C306.4 48.1276 305.652 47.9178 304.931 47.9178C303.306 47.9178 302.577 48.7299 302.577 49.6699C302.577 52.0333 306.509 50.9565 306.509 52.7085C306.509 53.3382 305.989 53.84 304.794 53.84C303.954 53.84 303.142 53.5115 302.686 53.0643L302.421 53.5847C302.896 54.0774 303.836 54.415 304.794 54.415ZM311.457 54.4059C312.27 54.4059 312.954 54.0774 313.337 53.4569L312.853 53.1284C312.525 53.612 312.014 53.8309 311.457 53.8309C310.408 53.8309 309.641 53.092 309.641 51.9601C309.641 50.8377 310.408 50.0898 311.457 50.0898C312.014 50.0898 312.525 50.3177 312.853 50.8013L313.337 50.4729C312.954 49.8432 312.27 49.5238 311.457 49.5238C310.025 49.5238 308.984 50.5275 308.984 51.9601C308.984 53.3928 310.025 54.4059 311.457 54.4059Z" fill="#1E538F"/>
</g>
<defs>
<clipPath id="clip0_1601_196">
<rect width="314" height="69.502" fill="white"/>
</clipPath>
</defs>
</svg>
