<svg width="730" height="78" viewBox="0 0 730 78" fill="none" xmlns="http://www.w3.org/2000/svg">
<path fill-rule="evenodd" clip-rule="evenodd" d="M28.0392 11.9995V51.538C28.0392 52.3234 27.6758 53.0646 27.0549 53.5455L12.1331 65.1031C11.1176 65.8897 9.67466 65.794 8.7719 64.8802L0.732905 56.7432C-0.112721 55.8872 -0.241516 54.5553 0.42444 53.5532L28.0392 11.9995ZM31.4212 11.9995V51.538C31.4212 52.3234 31.7846 53.0646 32.4055 53.5455L47.3272 65.1031C48.3427 65.8897 49.7857 65.794 50.6885 64.8802L58.7275 56.7432C59.5731 55.8872 59.7019 54.5553 59.0359 53.5532L31.4212 11.9995ZM25.3883 47.7841V23.4116L8.16872 48.8668C7.48541 49.877 7.61671 51.2302 8.48148 52.0901L12.5063 56.0923C13.4051 56.9861 14.8255 57.0801 15.8343 56.3125L24.3867 49.8048C25.0178 49.3246 25.3883 48.5771 25.3883 47.7841ZM34.2887 23.4115V47.784C34.2887 48.5771 34.6592 49.3246 35.2903 49.8048L43.8427 56.3124C44.8515 57.08 46.2719 56.986 47.1708 56.0922L51.1955 52.0901C52.0603 51.2302 52.1916 49.8769 51.5083 48.8668L34.2887 23.4115Z" fill="#1E1E1E"/>
<path d="M94.5306 39.1981L95.4429 35.0511H108.921L109.874 39.1981H94.5306ZM102.12 25.8449L97.5579 36.5026L97.4749 37.5808L93.4524 46.6626H87.9369L102.12 16.0166L116.302 46.6626H110.787L106.847 37.8296L106.723 36.627L102.12 25.8449ZM120.384 38.8248V34.8023H128.885V38.8248H120.384ZM133.15 22.1541V17.6339H153.387V22.1541H145.715V46.6626H140.78V22.1541H133.15ZM162.631 33.3509V28.8307H183.324V33.3509H162.631ZM180.173 17.6339H185.066V46.6626H180.173V17.6339ZM160.682 17.6339H165.575V46.6626H160.682V17.6339ZM198.798 32.1482C198.798 34.1388 199.213 35.922 200.042 37.4978C200.9 39.046 202.074 40.2625 203.567 41.1471C205.06 42.0318 206.761 42.4742 208.668 42.4742C210.603 42.4742 212.304 42.0318 213.769 41.1471C215.262 40.2625 216.423 39.046 217.252 37.4978C218.109 35.922 218.538 34.1388 218.538 32.1482C218.538 30.1577 218.123 28.3883 217.294 26.8401C216.464 25.2643 215.303 24.034 213.81 23.1493C212.345 22.2647 210.631 21.8223 208.668 21.8223C206.761 21.8223 205.06 22.2647 203.567 23.1493C202.074 24.034 200.9 25.2643 200.042 26.8401C199.213 28.3883 198.798 30.1577 198.798 32.1482ZM193.615 32.1482C193.615 29.9642 193.988 27.9598 194.734 26.1352C195.481 24.3105 196.531 22.7346 197.886 21.4076C199.268 20.053 200.872 19.0024 202.697 18.2559C204.549 17.5095 206.539 17.1363 208.668 17.1363C210.852 17.1363 212.857 17.5095 214.681 18.2559C216.506 19.0024 218.096 20.053 219.45 21.4076C220.833 22.7346 221.897 24.3105 222.643 26.1352C223.39 27.9598 223.763 29.9642 223.763 32.1482C223.763 34.3047 223.39 36.309 222.643 38.1613C221.897 40.0136 220.846 41.6171 219.492 42.9718C218.137 44.3265 216.534 45.3909 214.681 46.165C212.857 46.9114 210.852 47.2846 208.668 47.2846C206.512 47.2846 204.507 46.9114 202.655 46.165C200.803 45.3909 199.199 44.3265 197.845 42.9718C196.518 41.6171 195.481 40.0136 194.734 38.1613C193.988 36.309 193.615 34.3047 193.615 32.1482ZM253.445 17.6339H258.256V48.114L237.065 27.1719V46.6626H232.254V16.1825L253.445 37.1246V17.6339ZM89.7716 62.8639L90.1714 61.7977H94.3029L94.7027 62.8639H89.7716ZM92.2105 58.4392L90.6379 62.1442L90.5313 62.3841L89.1452 65.6626H87.8791L92.2105 55.867L96.5419 65.6626H95.2758L93.9164 62.464L93.8098 62.1975L92.2105 58.4392ZM97.7435 56.3335H98.8763V64.5964H102.541V65.6626H97.7435V56.3335ZM103.81 56.3335H104.943V64.5964H108.608V65.6626H103.81V56.3335ZM108.007 57.3996V56.3335H113.937V57.3996H111.538V65.6626H110.405V57.3996H108.007ZM115.828 65.6626V64.5964H120.532V65.6626H115.828ZM115.828 57.3996V56.3335H120.532V57.3996H115.828ZM115.828 61.1313V60.0651H120.266V61.1313H115.828ZM115.201 56.3335H116.334V65.6626H115.201V56.3335ZM124.261 61.0647H125.527L128.859 65.6626H127.46L124.261 61.0647ZM122.595 56.3335H123.728V65.6626H122.595V56.3335ZM123.222 57.333V56.3335H125.128C125.732 56.3335 126.269 56.449 126.74 56.68C127.22 56.9021 127.598 57.2219 127.873 57.6395C128.157 58.0571 128.299 58.5547 128.299 59.1322C128.299 59.7008 128.157 60.1984 127.873 60.6249C127.598 61.0424 127.22 61.3667 126.74 61.5978C126.269 61.8199 125.732 61.9309 125.128 61.9309H123.222V60.9314H125.128C125.527 60.9314 125.878 60.8603 126.18 60.7181C126.491 60.576 126.731 60.3716 126.9 60.1051C127.078 59.8385 127.167 59.5142 127.167 59.1322C127.167 58.7501 127.078 58.4258 126.9 58.1593C126.731 57.8928 126.491 57.6884 126.18 57.5462C125.878 57.4041 125.527 57.333 125.128 57.333H123.222ZM131.785 61.0647H133.052L136.383 65.6626H134.984L131.785 61.0647ZM130.12 56.3335H131.252V65.6626H130.12V56.3335ZM130.746 57.333V56.3335H132.652C133.256 56.3335 133.793 56.449 134.264 56.68C134.744 56.9021 135.122 57.2219 135.397 57.6395C135.682 58.0571 135.824 58.5547 135.824 59.1322C135.824 59.7008 135.682 60.1984 135.397 60.6249C135.122 61.0424 134.744 61.3667 134.264 61.5978C133.793 61.8199 133.256 61.9309 132.652 61.9309H130.746V60.9314H132.652C133.052 60.9314 133.403 60.8603 133.705 60.7181C134.016 60.576 134.255 60.3716 134.424 60.1051C134.602 59.8385 134.691 59.5142 134.691 59.1322C134.691 58.7501 134.602 58.4258 134.424 58.1593C134.255 57.8928 134.016 57.6884 133.705 57.5462C133.403 57.4041 133.052 57.333 132.652 57.333H130.746ZM138.537 62.8639L138.937 61.7977H143.068L143.468 62.8639H138.537ZM140.976 58.4392L139.403 62.1442L139.296 62.3841L137.91 65.6626H136.644L140.976 55.867L145.307 65.6626H144.041L142.682 62.464L142.575 62.1975L140.976 58.4392ZM146.509 56.3335H147.641V65.6626H146.509V56.3335ZM156.905 56.3335H158.038V66.1291L150.975 58.719V65.6626H149.842V55.867L156.905 63.277V56.3335ZM164.305 56.3335H165.438V65.6626H164.305V56.3335ZM164.931 57.3996V56.3335H166.837C167.441 56.3335 167.979 56.449 168.45 56.68C168.929 56.9021 169.307 57.2219 169.582 57.6395C169.867 58.0571 170.009 58.5547 170.009 59.1322C170.009 59.7008 169.867 60.1984 169.582 60.6249C169.307 61.0424 168.929 61.3667 168.45 61.5978C167.979 61.8199 167.441 61.9309 166.837 61.9309H164.931V60.8648H166.837C167.441 60.8648 167.93 60.7181 168.303 60.4249C168.685 60.1317 168.876 59.7008 168.876 59.1322C168.876 58.5547 168.685 58.1238 168.303 57.8394C167.93 57.5462 167.441 57.3996 166.837 57.3996H164.931ZM173.339 61.0647H174.605L177.937 65.6626H176.537L173.339 61.0647ZM171.673 56.3335H172.806V65.6626H171.673V56.3335ZM172.299 57.333V56.3335H174.205C174.809 56.3335 175.347 56.449 175.818 56.68C176.297 56.9021 176.675 57.2219 176.95 57.6395C177.235 58.0571 177.377 58.5547 177.377 59.1322C177.377 59.7008 177.235 60.1984 176.95 60.6249C176.675 61.0424 176.297 61.3667 175.818 61.5978C175.347 61.8199 174.809 61.9309 174.205 61.9309H172.299V60.9314H174.205C174.605 60.9314 174.956 60.8603 175.258 60.7181C175.569 60.576 175.809 60.3716 175.978 60.1051C176.155 59.8385 176.244 59.5142 176.244 59.1322C176.244 58.7501 176.155 58.4258 175.978 58.1593C175.809 57.8928 175.569 57.6884 175.258 57.5462C174.956 57.4041 174.605 57.333 174.205 57.333H172.299ZM179.197 56.3335H180.33V65.6626H179.197V56.3335ZM185.862 63.5569L188.928 56.3335H190.194L185.862 66.1291L181.531 56.3335H182.797L185.862 63.5569ZM190.961 62.8639L191.36 61.7977H195.492L195.892 62.8639H190.961ZM193.399 58.4392L191.827 62.1442L191.72 62.3841L190.334 65.6626H189.068L193.399 55.867L197.731 65.6626H196.465L195.105 62.464L194.999 62.1975L193.399 58.4392ZM197.062 57.3996V56.3335H202.993V57.3996H200.594V65.6626H199.461V57.3996H197.062ZM204.884 65.6626V64.5964H209.588V65.6626H204.884ZM204.884 57.3996V56.3335H209.588V57.3996H204.884ZM204.884 61.1313V60.0651H209.322V61.1313H204.884ZM204.257 56.3335H205.39V65.6626H204.257V56.3335ZM215.713 56.3335H216.846V64.5964H220.511V65.6626H215.713V56.3335ZM221.78 56.3335H222.913V65.6626H221.78V56.3335ZM226.406 59.3588L225.713 65.6626H224.58L225.713 55.867L229.445 62.624L233.176 55.867L234.309 65.6626H233.176L232.483 59.3588L229.445 64.7963L226.406 59.3588ZM235.969 56.3335H237.102V65.6626H235.969V56.3335ZM238.37 57.3996V56.3335H244.301V57.3996H241.902V65.6626H240.769V57.3996H238.37ZM246.191 65.6626V64.5964H250.896V65.6626H246.191ZM246.191 57.3996V56.3335H250.896V57.3996H246.191ZM246.191 61.1313V60.0651H250.629V61.1313H246.191ZM245.565 56.3335H246.697V65.6626H245.565V56.3335ZM252.959 56.3335H254.092V65.6626H252.959V56.3335ZM255.757 65.6626H253.585V64.5298H255.757C256.282 64.5298 256.761 64.4498 257.197 64.2899C257.632 64.1211 258.005 63.8856 258.316 63.5835C258.627 63.2726 258.867 62.8994 259.036 62.464C259.205 62.0287 259.289 61.54 259.289 60.998C259.289 60.456 259.205 59.9674 259.036 59.532C258.867 59.0967 258.627 58.7279 258.316 58.4258C258.005 58.1149 257.632 57.8794 257.197 57.7195C256.761 57.5507 256.282 57.4663 255.757 57.4663H253.585V56.3335H255.757C256.664 56.3335 257.468 56.5289 258.17 56.9199C258.872 57.3108 259.422 57.8572 259.822 58.5591C260.222 59.2521 260.422 60.0651 260.422 60.998C260.422 61.9309 260.222 62.7483 259.822 63.4503C259.422 64.1433 258.872 64.6853 258.17 65.0762C257.468 65.4671 256.664 65.6626 255.757 65.6626Z" fill="#1E1E1E"/>
<path d="M315.636 33.6813L319.41 39.3287L323.196 33.6813H325.031L320.289 40.5305L325.225 47.6641H323.416L319.423 41.7582L315.442 47.6641H313.633L318.57 40.5305L313.827 33.6813H315.636Z" fill="black"/>
<g clip-path="url(#clip0_1804_232)">
<path d="M482.779 37.383H469.897L467.439 43.3287H460.859L473.227 15.582H479.568L491.975 43.3287H485.237L482.779 37.383ZM480.758 32.5075L476.358 21.8845L471.958 32.5075H480.758Z" fill="#1E538F"/>
<path d="M524.42 43.3287L519.07 35.5993H518.752H513.163V43.3287H506.742V15.582H518.752C521.21 15.582 523.337 15.9916 525.134 16.8108C526.957 17.63 528.358 18.7927 529.336 20.2989C530.314 21.8052 530.802 23.5889 530.802 25.6501C530.802 27.7113 530.3 29.495 529.296 31.0013C528.318 32.4811 526.918 33.6174 525.094 34.4101L531.318 43.3287H524.42ZM524.302 25.6501C524.302 24.091 523.8 22.9019 522.795 22.0827C521.791 21.2371 520.325 20.8143 518.396 20.8143H513.163V30.486H518.396C520.325 30.486 521.791 30.0632 522.795 29.2176C523.8 28.372 524.302 27.1828 524.302 25.6501Z" fill="#1E538F"/>
<path d="M553.145 20.8143H544.266V15.582H568.445V20.8143H559.566V43.3287H553.145V20.8143Z" fill="#1E538F"/>
<path d="M595.485 15.582C599.079 15.582 601.906 16.4408 603.968 18.1585C606.029 19.8762 607.06 22.2412 607.06 25.2537C607.06 28.2662 606.029 30.6313 603.968 32.3489C601.906 34.0666 599.079 34.9254 595.485 34.9254H588.628V43.3287H584.664V15.582H595.485ZM595.366 31.4769C597.877 31.4769 599.793 30.9484 601.114 29.8914C602.435 28.8079 603.096 27.262 603.096 25.2537C603.096 23.2454 602.435 21.7127 601.114 20.6557C599.793 19.5723 597.877 19.0306 595.366 19.0306H588.628V31.4769H595.366Z" fill="#1E538F"/>
<path d="M641.06 36.3921H626.315L623.262 43.3287H619.18L631.745 15.582H635.669L648.274 43.3287H644.112L641.06 36.3921ZM639.672 33.221L633.687 19.6251L627.702 33.221H639.672Z" fill="#1E538F"/>
<path d="M682.855 43.3287L676.87 34.8065C676.13 34.8594 675.549 34.8858 675.126 34.8858H668.269V43.3287H664.305V15.582H675.126C678.72 15.582 681.547 16.4408 683.608 18.1585C685.669 19.8762 686.7 22.2412 686.7 25.2537C686.7 27.3942 686.172 29.2176 685.115 30.7238C684.058 32.2301 682.551 33.3267 680.596 34.0138L687.176 43.3287H682.855ZM675.007 31.5166C677.517 31.5166 679.433 30.9748 680.754 29.8914C682.075 28.8079 682.736 27.262 682.736 25.2537C682.736 23.2454 682.075 21.7127 680.754 20.6557C679.433 19.5723 677.517 19.0306 675.007 19.0306H668.269V31.5166H675.007Z" fill="#1E538F"/>
<path d="M714.037 31.0013L708.964 36.1542V43.3287H705V15.582H708.964V31.0806L724.026 15.582H728.545L716.693 28.0681L729.298 43.3287H724.66L714.037 31.0013Z" fill="#1E538F"/>
<path d="M431.708 14.7467C432.847 15.1263 433.909 15.8095 434.82 16.7963C437.174 19.3773 440.817 20.3642 442.943 20.6678C442.184 22.7174 441.197 26.3611 442.26 29.6253C442.639 30.8399 442.715 31.9786 442.563 33.1172C443.322 33.7245 443.854 34.4837 444.233 35.3187C445.068 33.345 445.144 31.0676 444.385 28.8662C443.322 25.678 444.841 21.7306 445.372 20.5919C445.751 19.681 445.144 18.5423 444.157 18.4664C442.943 18.3145 438.768 17.7073 436.49 15.2022C434.972 13.4562 432.922 12.3935 430.797 12.0898C431.328 13.0008 431.632 13.8358 431.708 14.7467Z" fill="#E77F33"/>
<path d="M379.103 29.0176C378.344 31.2191 378.496 33.5723 379.331 35.6219C379.786 34.8628 380.393 34.2555 381.077 33.7241C380.773 32.4336 380.849 31.1431 381.304 29.7767C382.367 26.4367 381.38 22.7929 380.621 20.8192C382.747 20.4397 386.39 19.5287 388.744 16.9478C389.731 15.885 390.869 15.1259 392.16 14.8222C392.312 13.9113 392.615 13.0763 393.071 12.3931C390.869 12.6208 388.744 13.6835 387.074 15.5054C384.796 18.0105 380.621 18.6937 379.407 18.7696C378.344 18.8455 377.737 19.9842 378.192 20.8951C378.648 21.882 380.166 25.8294 379.103 29.0176Z" fill="#E77F33"/>
<path d="M425.556 67.9604C424.721 67.9604 423.886 67.809 423.127 67.4292C422.14 68.4921 420.849 69.2511 419.255 69.6304C415.839 70.314 413.182 73.0464 411.816 74.7168C410.449 73.0464 407.793 70.314 404.377 69.6304C402.858 69.3271 401.568 68.568 400.581 67.5052C399.898 67.809 399.139 67.9604 398.304 67.9604C398.228 67.9604 398.076 67.9604 398 67.9604C399.366 69.9342 401.416 71.3764 403.921 71.8321C407.261 72.5152 409.842 75.7792 410.601 76.7662C411.209 77.6012 412.499 77.6012 413.106 76.7662C413.865 75.7792 416.446 72.5152 419.787 71.8321C422.14 71.3764 424.265 69.9342 425.556 67.9604Z" fill="#2B9E27"/>
<path d="M445.375 56.7242C444.844 55.5854 443.325 51.7142 444.388 48.4497C445.223 45.9448 444.995 43.4397 443.857 41.2383C443.401 41.9215 442.87 42.5288 442.187 43.0601C442.718 44.5024 442.718 46.1725 442.187 47.7666C441.124 51.1066 442.111 54.7504 442.87 56.7242C440.744 57.1035 437.101 58.0145 434.748 60.5954C433.837 61.5823 432.774 62.2659 431.635 62.7211C431.483 63.6321 431.18 64.4671 430.648 65.2262C432.85 64.9223 434.899 63.8599 436.493 62.114C438.771 59.609 442.87 58.9254 444.16 58.8495C445.147 58.774 445.83 57.6352 445.375 56.7242Z" fill="#2B9E27"/>
<path d="M392.158 62.798C390.867 62.4183 389.729 61.7352 388.742 60.5964C386.389 58.0154 382.745 57.0285 380.619 56.7251C381.378 54.6754 382.365 51.0316 381.303 47.7675C380.847 46.4013 380.771 45.0347 381.075 43.8201C380.392 43.2888 379.784 42.6815 379.329 41.9224C378.494 43.9719 378.342 46.2493 379.101 48.5265C380.164 51.7151 378.646 55.6623 378.114 56.8011C377.735 57.7121 378.342 58.8504 379.329 58.9263C380.543 59.0783 384.719 59.6854 386.996 62.1904C388.666 64.0123 390.791 65.0752 393.145 65.303C392.689 64.544 392.31 63.709 392.158 62.798Z" fill="#2B9E27"/>
<path d="M398.233 9.28061C399.068 9.28061 399.903 9.43247 400.663 9.73609C401.649 8.74928 402.864 8.06604 404.306 7.76242C407.722 7.07922 410.379 4.34641 411.746 2.67636C413.112 4.34641 415.769 7.07922 419.185 7.76242C420.703 8.06604 421.994 8.74928 422.905 9.812C423.664 9.43247 424.499 9.28061 425.334 9.28061C423.967 7.45875 421.994 6.09236 419.564 5.56098C416.224 4.87778 413.643 1.6136 412.884 0.626755C412.277 -0.208267 410.986 -0.208267 410.379 0.626755C409.62 1.6136 407.039 4.87778 403.699 5.56098C401.27 6.09236 399.296 7.38284 397.93 9.28061C398.157 9.28061 398.233 9.28061 398.233 9.28061Z" fill="#E77F33"/>
<path d="M384.791 42.1494C382.893 42.1494 381.375 40.6312 381.375 38.7334C381.375 36.8356 382.893 35.3174 384.791 35.3174C386.689 35.3174 388.207 36.8356 388.207 38.7334C388.207 40.6312 386.689 42.1494 384.791 42.1494Z" fill="#1E538F"/>
<path d="M398.385 18.9218C396.487 18.9218 394.969 17.4036 394.969 15.5059C394.969 13.608 396.487 12.0898 398.385 12.0898C400.283 12.0898 401.801 13.608 401.801 15.5059C401.801 17.4036 400.283 18.9218 398.385 18.9218Z" fill="#1E538F"/>
<path d="M425.713 18.9218C423.815 18.9218 422.297 17.4036 422.297 15.5059C422.297 13.608 423.815 12.0898 425.713 12.0898C427.61 12.0898 429.129 13.608 429.129 15.5059C429.129 17.4036 427.535 18.9218 425.713 18.9218Z" fill="#1E538F"/>
<path d="M438.689 41.3906C436.792 41.3906 435.273 39.8724 435.273 37.9746C435.273 36.0768 436.792 34.5586 438.689 34.5586C440.587 34.5586 442.105 36.0768 442.105 37.9746C442.105 39.8724 440.587 41.3906 438.689 41.3906Z" fill="#1E538F"/>
<path d="M425.713 65.1513C423.815 65.1513 422.297 63.6332 422.297 61.7353C422.297 59.8374 423.815 58.3193 425.713 58.3193C427.61 58.3193 429.129 59.8374 429.129 61.7353C429.129 63.6332 427.535 65.1513 425.713 65.1513Z" fill="#1E538F"/>
<path d="M398.385 65.1513C396.487 65.1513 394.969 63.6332 394.969 61.7353C394.969 59.8374 396.487 58.3193 398.385 58.3193C400.283 58.3193 401.801 59.8374 401.801 61.7353C401.801 63.6332 400.283 65.1513 398.385 65.1513Z" fill="#1E538F"/>
<path d="M424.194 55.7376V48.374L414.781 53.9157L421.158 57.4836C421.917 56.5726 422.98 55.9655 424.194 55.7376Z" fill="#1E538F"/>
<path d="M427.227 29.8514L434.21 33.7229C435.273 32.6601 436.639 31.901 438.234 31.8251C436.943 26.8908 434.286 22.488 430.718 18.9961C429.883 20.2107 428.669 21.0457 427.227 21.4252V29.8514Z" fill="#1E538F"/>
<path d="M432.394 38.0522C432.394 37.4449 432.47 36.9135 432.622 36.3822L427.156 33.3457V43.0624L432.622 39.7982C432.546 39.2668 432.394 38.6595 432.394 38.0522Z" fill="#1E538F"/>
<path d="M411.746 52.1711L424.196 44.8077V31.5991L412.202 24.9189L390.719 37.1407C390.871 37.672 390.947 38.2034 390.947 38.7348C390.947 39.2662 390.871 39.7975 390.719 40.3289L411.746 52.1711Z" fill="#1E538F"/>
<path d="M424.192 28.1823V21.578C423.053 21.2743 421.99 20.667 421.155 19.832L415.234 23.1721L424.192 28.1823Z" fill="#1E538F"/>
<path d="M389.274 34.4841L409.087 23.2493L402.863 19.7574C401.724 20.9719 400.13 21.731 398.308 21.731C396.031 21.731 394.133 20.5165 392.994 18.7705C389.047 22.4143 386.238 27.1967 385.023 32.5864C386.693 32.5864 388.212 33.3455 389.274 34.4841Z" fill="#1E538F"/>
<path d="M419.64 60.0655L411.745 55.6626L404.23 60.0655C404.382 60.5971 404.458 61.2043 404.458 61.7355C404.458 62.8743 404.154 63.9371 403.547 64.9241C406.128 65.6831 408.785 66.1384 411.593 66.1384C414.554 66.1384 417.439 65.6831 420.096 64.7722C419.564 63.8612 419.336 62.8743 419.336 61.7355C419.412 61.2043 419.488 60.5971 419.64 60.0655Z" fill="#1E538F"/>
<path d="M427.227 46.5524V55.7379C428.745 56.1172 429.959 57.1041 430.794 58.3188C434.666 54.5991 437.399 49.665 438.537 44.1993C436.867 44.1993 435.349 43.5161 434.286 42.3774L427.227 46.5524Z" fill="#1E538F"/>
<path d="M402.787 57.4076L408.708 53.9157L389.274 42.9844C388.212 44.123 386.693 44.8821 385.023 44.9581C386.238 50.3478 389.047 55.0545 392.918 58.6978C393.981 56.8004 396.031 55.5857 398.308 55.5857C400.054 55.5097 401.648 56.2688 402.787 57.4076Z" fill="#1E538F"/>
<path d="M404.305 17.0994L412.124 21.5022L419.563 17.2512C419.411 16.7198 419.335 16.1125 419.335 15.5811C419.335 14.5943 419.563 13.6075 420.018 12.7725C417.362 11.9374 414.553 11.4819 411.668 11.4819C408.935 11.4819 406.278 11.8615 403.773 12.6206C404.229 13.5316 404.533 14.5184 404.533 15.5811C404.533 16.0366 404.457 16.568 404.305 17.0994Z" fill="#1E538F"/>
<path d="M467.369 60.8533H468.166L464.898 53.7028H464.152L460.883 60.8533H461.67L462.527 58.9434H466.512L467.369 60.8533ZM462.803 58.3303L464.52 54.4896L466.236 58.3303H462.803ZM470.422 60.8533H471.177V53.7028H470.422V60.8533ZM483.86 60.4856L482.838 59.4339C483.124 58.9842 483.339 58.4326 483.471 57.7889L482.879 57.605C482.777 58.1464 482.613 58.6063 482.399 58.9842L480.438 56.9617C481.602 56.2874 482.031 55.7868 482.031 55.0718C482.031 54.183 481.377 53.6518 480.366 53.6518C479.263 53.6518 478.558 54.265 478.558 55.1741C478.558 55.7257 478.762 56.1545 479.457 56.8696C478.149 57.6254 477.659 58.2488 477.659 59.0967C477.659 60.1795 478.66 60.9149 480.06 60.9149C481.03 60.9149 481.847 60.588 482.45 59.9442L483.441 60.9659L483.86 60.4856ZM480.366 54.1932C481.03 54.1932 481.408 54.5507 481.408 55.0819C481.408 55.5928 481.071 55.9503 480.039 56.5426C479.385 55.879 479.232 55.5826 479.232 55.1639C479.232 54.5915 479.651 54.1932 480.366 54.1932ZM480.1 60.312C479.069 60.312 478.374 59.8016 478.374 59.0249C478.374 58.3919 478.721 57.9422 479.865 57.2887L482.021 59.5052C481.531 60.0466 480.877 60.312 480.1 60.312ZM495.685 60.8533L493.938 58.402C494.98 58.0649 495.573 57.2781 495.573 56.1545C495.573 54.6225 494.47 53.7028 492.651 53.7028H489.975V60.8533H490.731V58.5859H492.651C492.856 58.5859 493.04 58.5757 493.223 58.5553L494.858 60.8533H495.685ZM492.631 57.9422H490.731V54.3567H492.631C494.061 54.3567 494.817 55.0106 494.817 56.1545C494.817 57.2781 494.061 57.9422 492.631 57.9422ZM500.473 60.9047C502.046 60.9047 503.2 59.7604 503.2 58.1668C503.2 56.5737 502.046 55.4395 500.473 55.4395C498.899 55.4395 497.735 56.5737 497.735 58.1668C497.735 59.7604 498.899 60.9047 500.473 60.9047ZM500.473 60.261C499.329 60.261 498.471 59.4232 498.471 58.1668C498.471 56.9103 499.329 56.073 500.473 56.073C501.616 56.073 502.464 56.9103 502.464 58.1668C502.464 59.4232 501.616 60.261 500.473 60.261ZM508.522 55.4395C507.663 55.4395 506.928 55.8072 506.479 56.5019V53.2739H505.753V60.8533H506.448V59.7914C506.887 60.5166 507.633 60.9047 508.522 60.9047C510.054 60.9047 511.198 59.7914 511.198 58.1668C511.198 56.5426 510.054 55.4395 508.522 55.4395ZM508.471 60.261C507.326 60.261 506.469 59.4232 506.469 58.1668C506.469 56.9103 507.326 56.073 508.471 56.073C509.604 56.073 510.473 56.9103 510.473 58.1668C510.473 59.4232 509.604 60.261 508.471 60.261ZM515.945 60.9047C517.519 60.9047 518.673 59.7604 518.673 58.1668C518.673 56.5737 517.519 55.4395 515.945 55.4395C514.372 55.4395 513.207 56.5737 513.207 58.1668C513.207 59.7604 514.372 60.9047 515.945 60.9047ZM515.945 60.261C514.801 60.261 513.943 59.4232 513.943 58.1668C513.943 56.9103 514.801 56.073 515.945 56.073C517.089 56.073 517.937 56.9103 517.937 58.1668C517.937 59.4232 517.089 60.261 515.945 60.261ZM523.8 60.0058C523.596 60.1897 523.3 60.2814 523.003 60.2814C522.401 60.2814 522.074 59.934 522.074 59.301V56.0934H523.708V55.4802H522.074V54.3058H521.349V55.4802H520.389V56.0934H521.349V59.3417C521.349 60.3328 521.91 60.9047 522.922 60.9047C523.34 60.9047 523.77 60.782 524.056 60.5268L523.8 60.0058ZM526.816 54.3058C527.123 54.3058 527.347 54.0705 527.347 53.7746C527.347 53.4985 527.113 53.2739 526.816 53.2739C526.52 53.2739 526.285 53.5087 526.285 53.7847C526.285 54.0705 526.52 54.3058 526.816 54.3058ZM526.448 60.8533H527.174V55.4802H526.448V60.8533ZM532.491 60.9047C533.4 60.9047 534.166 60.537 534.596 59.8423L534.054 59.4746C533.687 60.016 533.115 60.261 532.491 60.261C531.317 60.261 530.459 59.4339 530.459 58.1668C530.459 56.9103 531.317 56.073 532.491 56.073C533.115 56.073 533.687 56.3282 534.054 56.8696L534.596 56.5019C534.166 55.797 533.4 55.4395 532.491 55.4395C530.887 55.4395 529.723 56.563 529.723 58.1668C529.723 59.7706 530.887 60.9047 532.491 60.9047ZM538.533 60.9047C539.933 60.9047 540.75 60.3018 540.75 59.3723C540.75 57.3091 537.266 58.402 537.266 56.9516C537.266 56.4407 537.696 56.0628 538.666 56.0628C539.218 56.0628 539.779 56.1953 540.249 56.5222L540.566 55.9401C540.117 55.6335 539.361 55.4395 538.666 55.4395C537.297 55.4395 536.541 56.0934 536.541 56.9719C536.541 59.0967 540.025 57.9931 540.025 59.3927C540.025 59.9239 539.606 60.2712 538.585 60.2712C537.828 60.2712 537.103 60.0058 536.674 59.6687L536.347 60.2406C536.787 60.6185 537.644 60.9047 538.533 60.9047ZM548.452 60.8533H549.208V54.3567H551.721V53.7028H545.939V54.3567H548.452V60.8533ZM557.978 58.1668C557.978 56.5528 556.885 55.4395 555.373 55.4395C553.861 55.4395 552.748 56.5737 552.748 58.1668C552.748 59.7604 553.892 60.9047 555.567 60.9047C556.415 60.9047 557.161 60.5982 557.641 60.0262L557.232 59.5561C556.824 60.0262 556.241 60.261 555.587 60.261C554.413 60.261 553.555 59.5154 553.473 58.3919H557.967C557.967 58.3099 557.978 58.2284 557.978 58.1668ZM555.373 56.0628C556.425 56.0628 557.191 56.7983 557.283 57.8505H553.473C553.565 56.7983 554.331 56.0628 555.373 56.0628ZM562.754 60.9047C563.663 60.9047 564.429 60.537 564.858 59.8423L564.316 59.4746C563.949 60.016 563.377 60.261 562.754 60.261C561.579 60.261 560.721 59.4339 560.721 58.1668C560.721 56.9103 561.579 56.073 562.754 56.073C563.377 56.073 563.949 56.3282 564.316 56.8696L564.858 56.5019C564.429 55.797 563.663 55.4395 562.754 55.4395C561.15 55.4395 559.985 56.563 559.985 58.1668C559.985 59.7706 561.15 60.9047 562.754 60.9047ZM570.013 55.4395C569.104 55.4395 568.399 55.797 568.001 56.4204V53.2739H567.276V60.8533H568.001V58.0343C568.001 56.8085 568.726 56.0934 569.88 56.0934C570.902 56.0934 571.494 56.6755 571.494 57.8093V60.8533H572.219V57.7379C572.219 56.1953 571.321 55.4395 570.013 55.4395ZM577.999 55.4395C577.069 55.4395 576.344 55.8174 575.956 56.4713V55.4802H575.261V60.8533H575.987V58.0343C575.987 56.8085 576.712 56.0934 577.866 56.0934C578.887 56.0934 579.48 56.6755 579.48 57.8093V60.8533H580.206V57.7379C580.206 56.1953 579.307 55.4395 577.999 55.4395ZM585.463 60.9047C587.036 60.9047 588.191 59.7604 588.191 58.1668C588.191 56.5737 587.036 55.4395 585.463 55.4395C583.89 55.4395 582.725 56.5737 582.725 58.1668C582.725 59.7604 583.89 60.9047 585.463 60.9047ZM585.463 60.261C584.319 60.261 583.461 59.4232 583.461 58.1668C583.461 56.9103 584.319 56.073 585.463 56.073C586.607 56.073 587.455 56.9103 587.455 58.1668C587.455 59.4232 586.607 60.261 585.463 60.261ZM590.744 60.8533H591.469V53.2739H590.744V60.8533ZM596.756 60.9047C598.329 60.9047 599.483 59.7604 599.483 58.1668C599.483 56.5737 598.329 55.4395 596.756 55.4395C595.183 55.4395 594.019 56.5737 594.019 58.1668C594.019 59.7604 595.183 60.9047 596.756 60.9047ZM596.756 60.261C595.612 60.261 594.754 59.4232 594.754 58.1668C594.754 56.9103 595.612 56.073 596.756 56.073C597.9 56.073 598.748 56.9103 598.748 58.1668C598.748 59.4232 597.9 60.261 596.756 60.261ZM606.317 55.4802V56.5121C605.867 55.8072 605.091 55.4395 604.192 55.4395C602.66 55.4395 601.496 56.4917 601.496 58.0343C601.496 59.5765 602.66 60.6491 604.192 60.6491C605.071 60.6491 605.837 60.2916 606.286 59.6075V60.2916C606.286 61.6198 605.663 62.2427 604.304 62.2427C603.477 62.2427 602.701 61.9671 602.19 61.5073L601.822 62.0588C602.384 62.59 603.344 62.8864 604.325 62.8864C606.102 62.8864 607.011 62.0486 607.011 60.1999V55.4802H606.317ZM604.264 60.0058C603.079 60.0058 602.231 59.1986 602.231 58.0343C602.231 56.8696 603.079 56.073 604.264 56.073C605.449 56.073 606.307 56.8696 606.307 58.0343C606.307 59.1986 605.449 60.0058 604.264 60.0058ZM613.912 55.4802L611.89 60.0466L609.867 55.4802H609.111L611.512 60.8431L611.277 61.3642C610.971 62.0385 610.644 62.2631 610.163 62.2631C609.775 62.2631 609.448 62.1204 609.183 61.8546L608.846 62.396C609.173 62.723 609.653 62.8864 610.153 62.8864C610.919 62.8864 611.492 62.5493 611.941 61.4971L614.627 55.4802H613.912ZM623.297 53.7028H620.621V60.8533H621.377V58.5961H623.297C625.116 58.5961 626.219 57.6768 626.219 56.1545C626.219 54.6225 625.116 53.7028 623.297 53.7028ZM623.277 57.932H621.377V54.3567H623.277C624.707 54.3567 625.463 55.0106 625.463 56.1545C625.463 57.2781 624.707 57.932 623.277 57.932ZM630.602 55.4395C629.754 55.4395 628.958 55.7053 628.416 56.1647L628.743 56.7061C629.182 56.318 629.836 56.073 630.531 56.073C631.532 56.073 632.053 56.5737 632.053 57.4929V57.8194H630.347C628.804 57.8194 628.273 58.5141 628.273 59.3417C628.273 60.2712 629.019 60.9047 630.234 60.9047C631.123 60.9047 631.757 60.5676 632.083 60.016V60.8533H632.778V57.5235C632.778 56.1342 631.992 55.4395 630.602 55.4395ZM630.347 60.3328C629.489 60.3328 628.988 59.9442 628.988 59.3213C628.988 58.7698 629.325 58.3613 630.367 58.3613H632.053V59.2394C631.767 59.9442 631.164 60.3328 630.347 60.3328ZM636.515 56.5324V55.4802H635.821V60.8533H636.546V58.1158C636.546 56.8492 637.23 56.1342 638.354 56.1342C638.405 56.1342 638.466 56.1443 638.528 56.1443V55.4395C637.536 55.4395 636.852 55.8174 636.515 56.5324ZM645.071 60.8533H645.96L643.447 57.6768L645.745 55.4802H644.846L641.639 58.4122V53.2739H640.914V60.8533H641.639V59.3213L642.905 58.1566L645.071 60.8533ZM648.303 59.7914C647.996 59.7914 647.761 60.0262 647.761 60.343C647.761 60.6084 647.915 60.8024 648.129 60.864L647.782 62.345H648.272L648.701 60.9353C648.803 60.6491 648.844 60.5167 648.844 60.343C648.844 60.0364 648.619 59.7914 648.303 59.7914ZM655.357 60.8533H656.113V53.7028H655.357V60.8533ZM658.961 58.402H661.637V57.7685H658.961V58.402ZM669.716 53.7028V56.89H665.242V53.7028H664.485V60.8533H665.242V57.5541H669.716V60.8533H670.461V53.7028H669.716ZM677.832 55.4802V58.2997C677.832 59.5256 677.127 60.2508 676.003 60.2508C674.982 60.2508 674.389 59.6687 674.389 58.5243V55.4802H673.663V58.5961C673.663 60.1383 674.562 60.9047 675.931 60.9047C676.79 60.9047 677.484 60.5268 677.862 59.8729V60.8533H678.557V55.4802H677.832ZM684.429 55.4395C683.571 55.4395 682.835 55.8072 682.386 56.5019V53.2739H681.661V60.8533H682.355V59.7914C682.794 60.5166 683.54 60.9047 684.429 60.9047C685.961 60.9047 687.105 59.7914 687.105 58.1668C687.105 56.5426 685.961 55.4395 684.429 55.4395ZM684.378 60.261C683.234 60.261 682.376 59.4232 682.376 58.1668C682.376 56.9103 683.234 56.073 684.378 56.073C685.511 56.073 686.38 56.9103 686.38 58.1668C686.38 59.4232 685.511 60.261 684.378 60.261ZM697.693 53.6416C694.873 53.6416 692.922 55.5418 692.922 58.2589C692.922 60.9659 694.843 62.8966 697.652 62.8966C698.336 62.8966 699.174 62.7433 699.787 62.4266L699.613 61.9259C699.021 62.2325 698.265 62.3756 697.652 62.3756C695.169 62.3756 693.484 60.6801 693.484 58.2589C693.484 55.8378 695.19 54.1627 697.693 54.1627C700.165 54.1627 701.891 55.7562 701.891 58.1566C701.891 59.5358 701.483 60.3226 700.849 60.3226C700.502 60.3226 700.216 60.1179 700.216 59.546V55.6743H699.552V56.7061C699.133 56.0216 698.408 55.6335 697.529 55.6335C696.078 55.6335 694.996 56.7265 694.996 58.2589C694.996 59.8016 696.078 60.9047 697.529 60.9047C698.428 60.9047 699.164 60.4958 699.572 59.7914C699.613 60.4958 700.063 60.9047 700.726 60.9047C701.779 60.9047 702.422 59.8831 702.422 58.1464C702.422 55.47 700.461 53.6416 697.693 53.6416ZM697.621 60.312C696.487 60.312 695.67 59.4848 695.67 58.2589C695.67 57.0331 696.487 56.2263 697.621 56.2263C698.724 56.2263 699.562 57.0229 699.562 58.2589C699.562 59.5052 698.724 60.312 697.621 60.312ZM708.929 60.8533H709.684V53.7028H708.929V60.8533ZM713.084 60.8533H713.84V53.7028H713.084V60.8533ZM719.21 60.9149C721.039 60.9149 721.877 60.016 721.877 58.9638C721.877 56.3588 717.474 57.5439 717.474 55.5826C717.474 54.8675 718.056 54.2854 719.364 54.2854C719.997 54.2854 720.712 54.4794 721.324 54.8777L721.58 54.2752C721.008 53.8764 720.17 53.6416 719.364 53.6416C717.545 53.6416 716.728 54.5507 716.728 55.603C716.728 58.2488 721.13 57.0433 721.13 59.0046C721.13 59.7094 720.548 60.2712 719.21 60.2712C718.27 60.2712 717.361 59.9035 716.85 59.4029L716.554 59.9855C717.086 60.537 718.138 60.9149 719.21 60.9149ZM726.67 60.9047C727.579 60.9047 728.345 60.537 728.774 59.8423L728.232 59.4746C727.865 60.016 727.293 60.261 726.67 60.261C725.495 60.261 724.637 59.4339 724.637 58.1668C724.637 56.9103 725.495 56.073 726.67 56.073C727.293 56.073 727.865 56.3282 728.232 56.8696L728.774 56.5019C728.345 55.797 727.579 55.4395 726.67 55.4395C725.066 55.4395 723.901 56.563 723.901 58.1668C723.901 59.7706 725.066 60.9047 726.67 60.9047Z" fill="#1E538F"/>
</g>
<defs>
<clipPath id="clip0_1804_232">
<rect width="351.508" height="77.8041" fill="white" transform="translate(378)"/>
</clipPath>
</defs>
</svg>
