<svg width="198" height="45" viewBox="0 0 198 45" fill="none" xmlns="http://www.w3.org/2000/svg">
<path fill-rule="evenodd" clip-rule="evenodd" d="M22.2204 0V29.5978C22.2204 30.0281 22.0104 30.4339 21.6524 30.6954L9.3049 39.7155C8.72849 40.1366 7.91457 40.0851 7.40135 39.5952L0.424065 32.9343C-0.0655189 32.4669 -0.139933 31.734 0.24651 31.1856L22.2204 0ZM20.1376 26.8143V8.47407L6.33997 27.7112C5.94352 28.2639 6.01936 29.0085 6.51994 29.4779L10.3423 33.0627C10.8532 33.5419 11.6544 33.5924 12.2269 33.1816L19.5598 27.919C19.9236 27.658 20.1376 27.2488 20.1376 26.8143Z" fill="black"/>
<path fill-rule="evenodd" clip-rule="evenodd" d="M24.4124 0V29.5978C24.4124 30.0281 24.6224 30.4339 24.9804 30.6954L37.3279 39.7155C37.9043 40.1366 38.7182 40.0851 39.2315 39.5952L46.2087 32.9343C46.6983 32.4669 46.7727 31.734 46.3863 31.1856L24.4124 0ZM26.4952 26.8143V8.47407L40.2928 27.7112C40.6893 28.2639 40.6134 29.0085 40.1129 29.4779L36.2905 33.0627C35.7796 33.5419 34.9784 33.5924 34.4059 33.1816L27.073 27.919C26.7092 27.658 26.4952 27.2488 26.4952 26.8143Z" fill="black"/>
<path d="M61.4067 19.9926L62.1409 16.6551H72.9876L73.7553 19.9926H61.4067ZM67.5142 9.24598L63.843 17.8232L63.7763 18.691L60.5389 26H56.1001L67.5142 1.33622L78.9283 26H74.4895L71.3189 18.8912L71.2188 17.9234L67.5142 9.24598ZM82.5471 19.6922V16.4549H89.3889V19.6922H82.5471ZM93.155 6.27565V2.63782H109.442V6.27565H103.267V26H99.2959V6.27565H93.155ZM117.215 15.2868V11.6489H133.869V15.2868H117.215ZM131.332 2.63782H135.271V26H131.332V2.63782ZM115.646 2.63782H119.584V26H115.646V2.63782ZM146.656 14.3189C146.656 15.9209 146.99 17.356 147.657 18.6242C148.347 19.8702 149.293 20.8492 150.494 21.5612C151.695 22.2732 153.064 22.6292 154.599 22.6292C156.157 22.6292 157.525 22.2732 158.704 21.5612C159.906 20.8492 160.84 19.8702 161.508 18.6242C162.197 17.356 162.542 15.9209 162.542 14.3189C162.542 12.7169 162.208 11.293 161.541 10.047C160.873 8.77874 159.939 7.78863 158.738 7.07664C157.558 6.36465 156.179 6.00865 154.599 6.00865C153.064 6.00865 151.695 6.36465 150.494 7.07664C149.293 7.78863 148.347 8.77874 147.657 10.047C146.99 11.293 146.656 12.7169 146.656 14.3189ZM142.484 14.3189C142.484 12.5612 142.784 10.9481 143.385 9.4796C143.986 8.01112 144.831 6.74289 145.922 5.67491C147.034 4.58467 148.325 3.73918 149.793 3.13844C151.284 2.5377 152.886 2.23733 154.599 2.23733C156.357 2.23733 157.97 2.5377 159.438 3.13844C160.907 3.73918 162.186 4.58467 163.276 5.67491C164.389 6.74289 165.246 8.01112 165.846 9.4796C166.447 10.9481 166.747 12.5612 166.747 14.3189C166.747 16.0544 166.447 17.6675 165.846 19.1582C165.246 20.6489 164.4 21.9394 163.31 23.0297C162.22 24.1199 160.929 24.9765 159.438 25.5995C157.97 26.2002 156.357 26.5006 154.599 26.5006C152.864 26.5006 151.25 26.2002 149.76 25.5995C148.269 24.9765 146.979 24.1199 145.888 23.0297C144.82 21.9394 143.986 20.6489 143.385 19.1582C142.784 17.6675 142.484 16.0544 142.484 14.3189ZM190.969 2.63782H194.841V27.1681L177.786 10.314V26H173.915V1.46972L190.969 18.3239V2.63782ZM57.8734 38.3237L58.2557 37.3042H62.2064L62.5887 38.3237H57.8734ZM60.2056 34.0927L58.7018 37.6356L58.5998 37.8649L57.2744 41H56.0637L60.2056 31.6331L64.3474 41H63.1367L61.8368 37.9414L61.7349 37.6865L60.2056 34.0927ZM72.3145 32.0791H73.3977V39.9805H76.9024V41H72.3145V32.0791ZM84.9337 32.0791H86.0169V39.9805H89.5215V41H84.9337V32.0791ZM96.597 38.4512V37.4954H99.1458V38.4512H96.597ZM106.218 33.0986V32.0791H111.889V33.0986H109.596V41H108.512V33.0986H106.218ZM120.515 41V39.9805H125.014V41H120.515ZM120.515 33.0986V32.0791H125.014V33.0986H120.515ZM120.515 36.667V35.6475H124.759V36.667H120.515ZM119.916 32.0791H121V41H119.916V32.0791ZM135.398 36.6033H136.609L139.795 41H138.456L135.398 36.6033ZM133.805 32.0791H134.888V41H133.805V32.0791ZM134.404 33.0349V32.0791H136.226C136.804 32.0791 137.318 32.1896 137.768 32.4105C138.227 32.6229 138.588 32.9287 138.852 33.328C139.123 33.7274 139.259 34.2031 139.259 34.7554C139.259 35.2991 139.123 35.7749 138.852 36.1827C138.588 36.582 138.227 36.8921 137.768 37.113C137.318 37.3254 136.804 37.4316 136.226 37.4316H134.404V36.4758H136.226C136.609 36.4758 136.944 36.4079 137.233 36.2719C137.53 36.136 137.76 35.9406 137.921 35.6857C138.091 35.4308 138.176 35.1207 138.176 34.7554C138.176 34.39 138.091 34.0799 137.921 33.8251C137.76 33.5702 137.53 33.3748 137.233 33.2388C136.944 33.1029 136.609 33.0349 136.226 33.0349H134.404ZM149.411 36.6033H150.622L153.808 41H152.47L149.411 36.6033ZM147.818 32.0791H148.901V41H147.818V32.0791ZM148.417 33.0349V32.0791H150.239C150.817 32.0791 151.331 32.1896 151.781 32.4105C152.24 32.6229 152.601 32.9287 152.865 33.328C153.137 33.7274 153.272 34.2031 153.272 34.7554C153.272 35.2991 153.137 35.7749 152.865 36.1827C152.601 36.582 152.24 36.8921 151.781 37.113C151.331 37.3254 150.817 37.4316 150.239 37.4316H148.417V36.4758H150.239C150.622 36.4758 150.957 36.4079 151.246 36.2719C151.543 36.136 151.773 35.9406 151.934 35.6857C152.104 35.4308 152.189 35.1207 152.189 34.7554C152.189 34.39 152.104 34.0799 151.934 33.8251C151.773 33.5702 151.543 33.3748 151.246 33.2388C150.957 33.1029 150.622 33.0349 150.239 33.0349H148.417ZM162.685 38.3237L163.067 37.3042H167.018L167.4 38.3237H162.685ZM165.017 34.0927L163.513 37.6356L163.411 37.8649L162.086 41H160.875L165.017 31.6331L169.159 41H167.948L166.648 37.9414L166.546 37.6865L165.017 34.0927ZM177.126 32.0791H178.209V41H177.126V32.0791ZM193.886 32.0791H194.969V41.446L188.215 34.3603V41H187.132V31.6331L193.886 38.7188V32.0791Z" fill="black"/>
</svg>
