<svg width="125" height="63" viewBox="0 0 125 63" fill="none" xmlns="http://www.w3.org/2000/svg">
<g clip-path="url(#clip0_1601_229)">
<path d="M88.2767 16.1437C88.2428 16.2357 88.1798 16.3277 88.1798 16.4198C88.175 19.239 88.1701 22.0534 88.1701 24.8727C88.1701 24.9938 88.1701 25.11 88.1701 25.2554C88.0781 25.265 88.0005 25.2748 87.9278 25.2748C85.9611 25.2748 83.9992 25.2748 82.0327 25.2748C81.8049 25.2748 81.7031 25.2408 81.7031 24.9647C81.7129 17.7374 81.708 10.5148 81.7031 3.2875C81.7031 2.53667 81.7031 1.79068 81.7031 0.991414C82.4443 0.93813 83.2339 0.850935 84.0285 0.826715C85.9128 0.763742 87.802 0.715301 89.6911 0.686237C90.8004 0.666861 91.9096 0.647484 93.0143 0.715301C94.6804 0.817027 96.342 1.0011 97.897 1.67443C99.8152 2.50276 100.784 4.04317 101.084 6.03893C101.196 6.77522 101.234 7.53092 101.21 8.2769C101.181 9.17306 101.075 10.0789 100.731 10.9218C100.067 12.5397 98.8318 13.4407 97.1317 13.741C96.8943 13.7846 96.6521 13.8234 96.4147 13.8621C96.4098 13.896 96.4049 13.9251 96.3952 13.959C96.5116 14.0074 96.6326 14.0559 96.7489 14.0995C97.2041 14.2787 97.6935 14.3998 98.1053 14.6469C99.2436 15.325 99.854 16.3859 100.135 17.655C100.217 18.0183 100.334 18.3719 100.43 18.7304C100.818 20.1788 101.201 21.632 101.583 23.0804C101.607 23.1676 101.632 23.2548 101.714 23.3517C101.758 23.216 101.806 23.0852 101.845 22.9496C102.47 20.8473 103.095 18.7401 103.72 16.6329C104.688 13.3438 105.662 10.0547 106.626 6.76554C107.004 5.48671 107.357 4.20303 107.74 2.9242C108.137 1.59208 108.951 0.996256 110.341 0.996256C112.216 0.996256 114.091 0.972037 115.965 1.00595C117.138 1.02532 117.845 1.3741 118.276 2.56574C118.634 3.56361 118.901 4.59541 119.206 5.61267C119.608 6.969 120.005 8.32535 120.407 9.68168C120.795 10.9896 121.187 12.2926 121.575 13.6005C122.195 15.698 122.81 17.7955 123.425 19.893C123.9 21.5109 124.38 23.124 124.849 24.7419C124.898 24.9018 124.912 25.0713 124.951 25.265C124.786 25.265 124.661 25.265 124.534 25.265C122.558 25.265 120.587 25.2602 118.61 25.2748C118.31 25.2748 118.218 25.1633 118.155 24.8969C117.763 23.279 117.356 21.6659 116.944 20.0528C116.808 19.5297 116.784 19.52 116.241 19.5152C114.086 19.5103 111.93 19.5152 109.775 19.5055C109.508 19.5055 109.382 19.5927 109.314 19.8591C108.888 21.5496 108.443 23.2402 108.026 24.9357C107.958 25.2215 107.818 25.2699 107.575 25.2699C106.064 25.2699 104.553 25.265 103.041 25.2699C102.489 25.2699 101.942 25.3232 101.39 25.3183C99.418 25.3086 97.4464 25.2893 95.4799 25.2748C95.315 25.2748 95.2279 25.2311 95.1891 25.0519C94.7822 23.2402 94.3753 21.4285 93.954 19.6217C93.7893 18.9096 93.6002 18.2024 93.3968 17.5C93.1352 16.5893 92.4522 16.2018 91.5656 16.163C90.5001 16.1194 89.4345 16.1291 88.3687 16.1194C88.3396 16.1243 88.3155 16.134 88.2864 16.1388L88.2767 16.1437ZM88.175 11.382C89.6716 11.3432 91.1153 11.3238 92.5637 11.2608C93.6051 11.2124 94.2931 10.6311 94.4528 9.71559C94.5836 8.9696 94.6224 8.21877 94.5207 7.45824C94.4092 6.62022 94.075 5.95659 93.208 5.695C92.9125 5.60781 92.6025 5.54485 92.2973 5.53516C91.0185 5.50125 89.7394 5.49154 88.4655 5.46734C88.2379 5.46734 88.1798 5.54968 88.1798 5.7725C88.1847 7.48247 88.1798 9.19243 88.1798 10.9024C88.1798 11.0429 88.1798 11.1785 88.1798 11.382H88.175ZM115.583 14.7534C115.563 14.6372 115.554 14.5403 115.529 14.4434C115.336 13.6441 115.132 12.8449 114.938 12.0456C114.488 10.1952 113.921 8.37377 113.669 6.47975C113.606 6.00502 113.582 6.00987 113.098 6.00987C113.015 6.00987 112.938 6.00987 112.855 6.00987C112.676 5.99533 112.618 6.068 112.594 6.24724C112.536 6.71226 112.482 7.18214 112.371 7.63748C111.814 9.90936 111.242 12.1715 110.676 14.4386C110.651 14.5403 110.632 14.642 110.608 14.7534H115.583Z" fill="#0B2231"/>
<path d="M51.8734 1.11662C52.1932 1.11662 52.5128 1.10693 52.8375 1.10693C54.6008 1.10693 56.3638 1.10693 58.1271 1.11178C58.2047 1.11178 58.2823 1.12147 58.413 1.12631C58.2967 1.86745 58.1852 2.58438 58.0739 3.30129C57.9673 3.99885 57.8754 4.69639 57.7639 5.38909C57.6331 6.20775 57.4877 7.02155 57.3618 7.84021C57.2696 8.43118 57.1972 9.02216 57.1098 9.61313C56.8725 11.139 56.6256 12.6649 56.3929 14.1956C56.2621 15.0482 56.1509 15.9007 56.0247 16.7533C55.8698 17.7899 55.71 18.8266 55.55 19.8632C55.3661 21.0451 55.2014 22.2271 54.9882 23.4042C54.7847 24.5426 53.8838 25.2692 52.726 25.2692C50.711 25.274 48.6957 25.274 46.6806 25.274C45.8524 25.274 44.8932 24.4796 44.7139 23.6222C44.588 23.0215 44.5104 22.4063 44.4184 21.796C44.273 20.8078 44.1374 19.8196 43.9874 18.8314C43.8322 17.8141 43.6578 16.8017 43.5029 15.7845C43.3721 14.898 43.2704 14.0067 43.1348 13.1202C42.9845 12.0981 42.7957 11.076 42.6551 10.0539C42.4905 8.83807 42.3695 7.61252 42.2241 6.39181C42.2048 6.22712 42.2094 6.04788 42.1514 5.89773C42.1224 5.81537 41.9818 5.73787 41.8899 5.73301C41.7833 5.72818 41.6235 5.77661 41.57 5.85414C41.5022 5.9607 41.512 6.12056 41.4927 6.25617C41.3522 7.45752 41.2166 8.65884 41.076 9.86502C40.9985 10.5287 40.9211 11.1923 40.824 11.8559C40.6789 12.8829 40.5237 13.9098 40.3737 14.9368C40.2234 15.9637 40.0685 16.9907 39.9231 18.0224C39.7924 18.9234 39.6809 19.8244 39.5452 20.7206C39.3952 21.7088 39.2305 22.6921 39.0705 23.6803C38.9593 24.3633 38.1793 25.0754 37.3799 25.2207C37.1813 25.2546 36.9779 25.274 36.7793 25.274C34.9048 25.274 33.03 25.2934 31.1555 25.274C30.1721 25.2595 29.3146 24.9349 28.9272 23.937C28.7576 23.4914 28.7042 22.9973 28.6269 22.5177C28.3749 21.0112 28.1326 19.4999 27.8953 17.9885C27.7452 17.0391 27.624 16.0848 27.474 15.1305C27.2995 14.0067 27.101 12.8877 26.9265 11.7639C26.7909 10.8968 26.694 10.0249 26.5584 9.15777C26.4518 8.45538 26.3113 7.7627 26.1998 7.06514C26.0886 6.34821 26.0061 5.62646 25.8946 4.9047C25.7009 3.68884 25.4975 2.47781 25.2989 1.26679C25.294 1.22804 25.2989 1.18928 25.3037 1.13116C25.4103 1.12631 25.5072 1.11662 25.6041 1.11662C27.5998 1.11662 29.5956 1.11662 31.5914 1.11662C31.7997 1.11662 31.8676 1.17475 31.8868 1.38305C31.9739 2.36155 32.071 3.34006 32.1822 4.31372C32.3035 5.35035 32.4633 6.38212 32.5843 7.41875C32.6667 8.10177 32.7055 8.78479 32.7829 9.46781C32.88 10.3397 33.0058 11.2068 33.1027 12.0739C33.1851 12.7957 33.2432 13.5271 33.3254 14.2489C33.403 14.9271 33.5194 15.6053 33.5872 16.2834C33.6596 17.0052 33.6935 17.7318 33.7421 18.4584C33.7858 19.1027 33.8148 19.7518 33.868 20.396C33.8728 20.4638 33.9843 20.5559 34.0619 20.5801C34.1731 20.614 34.2993 20.5898 34.4395 20.5898C34.5752 19.7275 34.7062 18.8895 34.8321 18.0467C34.9531 17.2474 35.0694 16.4433 35.1807 15.644C35.268 15.0191 35.3456 14.3942 35.4376 13.7742C35.5151 13.2559 35.612 12.7376 35.6942 12.2192C35.8735 11.0324 36.0382 9.84564 36.2224 8.65884C36.3919 7.56893 36.5758 6.48385 36.7503 5.39877C36.8761 4.60437 36.9876 3.80993 37.1282 3.02034C37.3267 1.91105 38.2228 1.0924 39.4484 1.11178C40.9792 1.136 42.5097 1.13116 44.0406 1.12147C45.6489 1.10693 46.3803 2.037 46.6079 3.34974C46.7823 4.36215 46.9277 5.3794 47.0875 6.39666C47.2473 7.42844 47.4071 8.46509 47.5671 9.49687C47.7367 10.5965 47.9014 11.6912 48.0709 12.7908C48.2646 14.0552 48.4729 15.3194 48.6569 16.5886C48.7635 17.3104 48.8218 18.0418 48.9235 18.7684C49.0057 19.3691 49.127 19.9601 49.2287 20.5704H49.7905C49.8195 20.1345 49.8535 19.7033 49.8776 19.2674C49.9405 18.3324 49.9793 17.3927 50.0667 16.4578C50.1538 15.5374 50.2992 14.6219 50.4058 13.7015C50.5026 12.8441 50.5704 11.9819 50.6673 11.1196C50.7158 10.6643 50.8078 10.2138 50.8561 9.75846C50.9822 8.61524 51.084 7.47206 51.2147 6.32885C51.3308 5.3019 51.4762 4.27981 51.5972 3.25287C51.6797 2.56984 51.7426 1.88683 51.8104 1.20382C51.8251 1.17959 51.8346 1.16022 51.8492 1.136L51.8734 1.11662Z" fill="#0A2231"/>
<path d="M64.228 25.2629C62.678 25.2629 61.1279 25.2677 59.5729 25.2725C59.0304 25.2725 58.4829 25.2725 57.9404 25.2774C57.8338 25.2774 57.7272 25.2677 57.5625 25.2629C57.7562 24.6331 57.9404 24.0567 58.1148 23.4754C58.8947 20.8402 59.6747 18.2099 60.4546 15.5747C61.6411 11.5541 62.8231 7.53355 64.0099 3.51782C64.0973 3.21748 64.1602 2.91231 64.2717 2.62166C64.6542 1.61894 65.381 1.03765 66.4612 1.02312C68.4762 0.994054 70.4913 0.984366 72.5066 1.02312C73.6256 1.04249 74.4394 1.64316 74.7783 2.78636C75.5196 5.27621 76.2608 7.76607 76.997 10.2511C77.5879 12.242 78.1741 14.2329 78.7603 16.2238C79.3802 18.331 80.0003 20.4381 80.6204 22.5453C80.8481 23.3155 81.0805 24.0809 81.3081 24.8511C81.3469 24.9819 81.3662 25.1175 81.4001 25.2822C81.1967 25.2822 81.0271 25.2822 80.8576 25.2822C78.925 25.2822 76.9873 25.2822 75.0544 25.3016C74.7104 25.3016 74.6233 25.1853 74.5506 24.885C74.1437 23.1993 73.7127 21.5184 73.2911 19.8375C73.2379 19.6292 73.1362 19.5323 72.9184 19.5323C70.7142 19.5372 68.5053 19.5323 66.3011 19.542C65.8218 19.542 65.7925 19.5759 65.6715 20.0458C65.2502 21.7073 64.8238 23.3688 64.3976 25.0303C64.3781 25.103 64.3298 25.1708 64.2959 25.2386C64.2717 25.2483 64.2424 25.2629 64.2183 25.2725L64.228 25.2629ZM71.964 14.7609C71.964 14.6979 71.9738 14.6495 71.964 14.6011C71.7315 13.6371 71.4893 12.678 71.2617 11.714C70.8692 10.0622 70.4818 8.40549 70.099 6.74881C70.0458 6.52598 70.099 6.21111 69.9682 6.09487C69.8228 5.96891 69.5177 6.02705 69.2852 6.00282C69.1059 5.98345 69.0334 6.0561 69.009 6.2305C68.9702 6.57443 68.9461 6.92321 68.8639 7.25745C68.3843 9.25803 67.89 11.249 67.4009 13.2447C67.2796 13.7436 67.144 14.2426 67.0132 14.7512H71.964V14.7609Z" fill="#0A2231"/>
<path d="M15.7569 5.84998C15.7569 6.52331 15.752 7.19665 15.752 7.86996C15.752 11.2511 15.752 14.6323 15.7618 18.0134C15.7618 18.8272 15.8102 19.6362 16.0718 20.421C16.5416 21.8306 17.6703 22.3489 19.0121 21.9565C19.637 21.7773 20.1989 21.3898 20.785 21.0798C20.911 21.0119 21.003 20.9344 21.1144 21.0846C21.5746 21.7192 22.0348 22.3537 22.524 23.0174C22.2576 23.216 22.0057 23.4146 21.7442 23.5938C20.5622 24.4125 19.3027 25.0858 17.8931 25.4055C16.7499 25.6671 15.5825 25.7155 14.4199 25.5266C13.9791 25.454 13.5335 25.391 13.0975 25.2747C10.8499 24.674 9.60492 23.1336 9.10113 20.9344C8.97035 20.3725 8.8977 19.7912 8.86379 19.2148C8.79597 17.9456 8.73783 16.6765 8.73298 15.4025C8.71361 12.2829 8.73298 9.16332 8.73298 6.04375C8.73298 5.98562 8.73298 5.92265 8.73298 5.8742C8.70878 5.84998 8.69424 5.82578 8.67487 5.82578C7.58979 5.81124 6.49989 5.71437 5.43418 6.0147C4.90133 6.16485 4.42177 6.4119 4.01003 6.78005C3.41905 7.30806 2.84745 7.86027 2.23225 8.43188C1.93676 8.16546 1.60736 7.87481 1.28281 7.57931C0.924347 7.25478 0.585263 6.91083 0.207425 6.6105C-0.0299346 6.42158 -0.0783753 6.31017 0.139608 6.04861C1.1714 4.82303 2.19834 3.59749 3.53047 2.67228C4.81415 1.78581 6.23829 1.37891 7.78839 1.35469C9.73087 1.32562 11.6733 1.28203 13.611 1.27719C16.7354 1.2675 19.855 1.28203 22.9794 1.28687C23.0763 1.28687 23.178 1.29656 23.3137 1.30141C23.3137 1.5097 23.3137 1.70831 23.3137 1.90691C23.3137 3.09371 23.2991 4.28051 23.3137 5.46732C23.3137 5.73857 23.2265 5.81607 22.9697 5.81607C20.7657 5.80638 18.5568 5.80638 16.3527 5.80155C16.1735 5.80155 15.9894 5.80155 15.8102 5.80638C15.7957 5.81607 15.7811 5.82578 15.7666 5.83546L15.7569 5.84998Z" fill="#32728F"/>
<path d="M47.3969 40.8074C47.5762 40.8413 47.7507 40.885 47.9297 40.914C49.814 41.1948 50.8603 42.275 51.1609 44.3679C51.2626 45.0751 51.2965 45.7967 51.2819 46.5137C51.2577 47.681 50.9767 48.7807 50.0951 49.6285C49.4266 50.2776 48.5838 50.5584 47.6829 50.6989C45.8371 50.9849 43.977 50.8831 42.1168 50.8782C41.2208 50.8782 40.3245 50.8926 39.4285 50.8734C38.7939 50.8587 38.1545 50.7909 37.5198 50.7475C37.2583 50.728 37.1565 50.6167 37.2195 50.3357C37.2729 50.1032 37.268 49.8561 37.268 49.6138C37.268 44.169 37.268 38.7291 37.268 33.2846C37.268 32.7274 37.2243 32.1705 37.1953 31.5601C37.5344 31.5213 37.8833 31.4535 38.2367 31.4437C39.942 31.3906 41.647 31.3566 43.3522 31.313C43.633 31.3081 43.9189 31.2937 44.1999 31.313C44.8537 31.3615 45.5078 31.4196 46.1618 31.4923C46.6848 31.5503 47.2127 31.6084 47.7311 31.715C49.6011 32.1073 50.5408 33.5751 50.6376 35.3287C50.6957 36.3362 50.7344 37.3342 50.4439 38.3078C50.0709 39.5527 49.5235 40.2841 47.8863 40.6088C47.7214 40.6427 47.5616 40.6864 47.4018 40.7298C47.4018 40.7542 47.4018 40.7783 47.4018 40.8025L47.3969 40.8074ZM43.9238 34.0013C43.8948 34.0013 43.8703 33.9967 43.8413 33.9918C42.8628 33.9967 41.8794 34.0013 40.901 34.0111C40.8575 34.0111 40.8139 34.0209 40.7702 34.0257C40.746 34.1177 40.6926 34.2097 40.6926 34.3019C40.6926 35.9537 40.6926 37.6006 40.6926 39.2524C40.6926 39.4898 40.7848 39.5964 41.0366 39.5915C41.7826 39.5818 42.5286 39.6059 43.2746 39.5915C44.0353 39.5723 44.7957 39.5478 45.5514 39.4608C46.5202 39.3493 47.0966 38.8214 47.2371 37.8573C47.334 37.2081 47.3533 36.5253 47.2759 35.8761C47.1449 34.7813 46.6365 34.3114 45.5466 34.1516C45.0138 34.074 44.4712 34.0548 43.9335 34.0111L43.9238 34.0013ZM40.7024 48.2189C41.899 48.2189 43.047 48.2333 44.1951 48.214C44.7764 48.2043 45.3624 48.1606 45.9388 48.0928C46.9222 47.9718 47.4794 47.4146 47.678 46.4507C47.8475 45.6223 47.799 44.7989 47.6682 43.9705C47.5084 42.9678 46.8932 42.3089 45.8952 42.1347C45.3189 42.033 44.7278 41.9652 44.1416 41.9505C43.0663 41.9215 41.9861 41.9408 40.9058 41.9457C40.838 41.9457 40.7702 41.9603 40.6926 41.9701V48.2235L40.7024 48.2189Z" fill="#0A2231"/>
<path d="M26.012 51.1152C25.0238 51.0181 24.0114 51.0229 23.0571 50.7953C21.0807 50.3255 19.6468 49.1533 18.9348 47.1914C18.5957 46.2517 18.4358 45.2827 18.2808 44.2994C18.0435 42.7688 18.0919 41.2282 18.1113 39.6879C18.121 38.9661 18.276 38.2491 18.3341 37.5275C18.4116 36.549 18.6732 35.6139 19.0365 34.713C19.6662 33.158 20.7997 32.1117 22.437 31.6855C23.1976 31.487 23.9823 31.3608 24.7622 31.2689C25.3968 31.1913 26.0459 31.1623 26.6804 31.2059C27.5621 31.2689 28.4581 31.3513 29.3205 31.545C31.2338 31.9761 32.4692 33.2066 33.1474 35.0133C33.4767 35.8852 33.6607 36.7912 33.7673 37.7261C33.9319 39.1115 34.0483 40.492 33.9903 41.8823C33.961 42.5507 33.8739 43.2143 33.8158 43.8781C33.7914 44.1542 33.7819 44.435 33.7529 44.7112C33.6075 46.1839 33.1376 47.5449 32.3382 48.7852C31.7571 49.691 30.8608 50.1899 29.8679 50.5192C28.6182 50.9359 27.3247 51.0617 26.0071 51.1198L26.012 51.1152ZM26.0603 48.165C26.2008 48.165 26.3414 48.1699 26.4819 48.165C28.1773 48.0875 29.2817 47.4142 29.7564 45.8399C29.9453 45.2149 30.0277 44.5563 30.1246 43.9071C30.2117 43.3114 30.299 42.7059 30.299 42.105C30.299 41.0782 30.2504 40.0512 30.1826 39.0244C30.1343 38.3074 30.0714 37.5855 29.9358 36.8832C29.6935 35.6576 29.0636 34.6986 27.7995 34.311C26.6902 33.9719 25.5663 33.9282 24.4328 34.2627C23.401 34.5676 22.7616 35.2458 22.3789 36.2197C21.9526 37.2999 21.8557 38.4479 21.8025 39.5813C21.7443 40.7825 21.8267 41.9889 21.8461 43.1901C21.8606 43.9798 21.9817 44.7597 22.2094 45.5152C22.5097 46.5181 22.9893 47.3949 24.0162 47.8308C24.6653 48.1021 25.3483 48.2038 26.0508 48.165H26.0603Z" fill="#0A2231"/>
<path d="M53.8993 41.1295C53.8993 40.4271 53.8559 39.7248 53.9091 39.0271C54.0206 37.5207 54.2289 36.0336 54.8442 34.6335C55.6675 32.7639 57.1497 31.761 59.1165 31.4558C60.1191 31.3009 61.1462 31.2233 62.1586 31.2089C62.856 31.1991 63.5584 31.3687 64.2561 31.4365C65.1231 31.5141 65.9177 31.7949 66.6683 32.2262C67.8359 32.8897 68.5043 33.9458 68.9451 35.1666C69.3132 36.1885 69.4828 37.2397 69.5747 38.3248C69.6814 39.6084 69.7928 40.8921 69.7201 42.1807C69.6331 43.8035 69.5555 45.436 69.0032 46.9907C68.6497 47.9936 68.1169 48.8752 67.3175 49.592C66.6005 50.2316 65.7384 50.5463 64.8326 50.7498C63.3454 51.084 61.8341 51.1276 60.3177 51.0067C59.0487 50.9049 57.8377 50.6141 56.7575 49.9118C55.5028 49.098 54.8246 47.8821 54.4565 46.4918C54.2482 45.707 54.1223 44.8981 54.0254 44.0891C53.9042 43.1106 53.8559 42.1272 53.7734 41.1441C53.8171 41.1441 53.8608 41.1441 53.8993 41.1392V41.1295ZM61.7178 48.1873C62.0666 48.1583 62.4103 48.1341 62.7592 48.1002C64.2561 47.9499 65.1472 47.0924 65.5737 45.6877C65.9369 44.4911 65.9999 43.2511 66.0387 42.016C66.0726 40.9792 65.9611 39.9427 65.932 38.9012C65.9079 38.0293 65.7869 37.1718 65.501 36.3485C65.1668 35.3844 64.5854 34.624 63.5633 34.3139C62.546 34.0039 61.5241 33.9507 60.4729 34.1832C59.199 34.464 58.4625 35.2536 58.0509 36.4502C57.6923 37.5012 57.6003 38.5912 57.5423 39.6763C57.484 40.8145 57.5276 41.9626 57.6003 43.1011C57.6535 43.8954 57.7748 44.6946 57.9587 45.465C58.2058 46.4918 58.7047 47.3783 59.7461 47.8192C60.3711 48.0856 61.0252 48.2261 61.7129 48.1824L61.7178 48.1873Z" fill="#0A2231"/>
<path d="M4.80349 50.683C3.81531 50.6876 2.82711 50.6876 1.84377 50.7023C1.65969 50.7023 1.60156 50.6491 1.60156 50.46C1.60156 44.1919 1.60156 37.9284 1.60156 31.6603C1.60156 31.6408 1.6064 31.6215 1.61609 31.5586C2.22645 31.5002 2.84648 31.418 3.46653 31.389C4.37721 31.3453 5.28791 31.3261 6.20344 31.3163C7.24975 31.3066 8.30092 31.2583 9.34724 31.3307C10.3645 31.4034 11.3866 31.5342 12.3748 31.7764C14.0024 32.1736 14.8743 33.3362 15.2037 34.9251C15.2909 35.3418 15.2909 35.7777 15.3297 36.2039C15.349 36.4315 15.4023 36.6643 15.3829 36.887C15.3151 37.6232 15.2861 38.3692 15.1165 39.0813C14.7629 40.5394 13.5567 41.5033 11.9679 41.7019C11.9097 41.7116 11.8516 41.7165 11.6869 41.7358C11.8322 41.8329 11.9049 41.8909 11.9824 41.9346C12.3845 42.1717 12.8156 42.3801 13.1886 42.6562C13.6827 43.0243 14.0072 43.5379 14.1816 44.129C14.8017 46.2216 15.412 48.3142 16.0175 50.4068C16.0369 50.4795 16.0175 50.5666 16.0175 50.6491C15.9691 50.6586 15.9206 50.6635 15.8674 50.6732C14.8113 50.6781 13.7553 50.6781 12.6993 50.6974C12.491 50.6974 12.4184 50.6103 12.3748 50.4359C11.9097 48.6628 11.4495 46.8851 10.97 45.117C10.8828 44.8023 10.752 44.4971 10.6164 44.1968C10.2482 43.3876 9.60397 43.0243 8.72235 43.0195C7.6179 43.0195 6.51346 42.9904 5.40901 42.9614C5.15227 42.9565 5.04569 43.0002 5.04569 43.3005C5.06023 45.6207 5.05054 47.9461 5.04569 50.2663C5.04569 50.3873 5.03117 50.5037 5.02149 50.6247C4.94882 50.6393 4.87617 50.6586 4.80349 50.6732V50.683ZM5.05054 37.1726C5.05054 38.098 5.06023 39.0233 5.04569 39.9483C5.04569 40.1857 5.10382 40.2633 5.34602 40.2584C6.81862 40.2101 8.29121 40.3552 9.75898 40.1374C10.5728 40.0162 11.3285 39.7498 11.59 38.8925C11.7741 38.2773 11.808 37.6088 11.8613 36.9597C11.8855 36.6594 11.7838 36.3542 11.7644 36.049C11.7111 35.1722 11.2316 34.4989 10.3839 34.2808C9.81711 34.1354 9.22128 34.063 8.63999 34.0435C7.56462 34.0095 6.48438 34.0435 5.40901 34.0291C5.1329 34.0291 5.04569 34.1259 5.05054 34.3972C5.06508 35.3223 5.05054 36.2476 5.05054 37.1726Z" fill="#0A2231"/>
<path d="M111.264 50.4367C111.341 49.5358 111.414 48.7073 111.477 47.9274C113.521 47.9515 115.517 47.9903 117.512 47.9903C118.181 47.9903 118.859 47.942 119.518 47.8452C120.128 47.7529 120.797 47.3607 120.821 46.4598C120.836 45.8928 120.869 45.3261 120.826 44.7594C120.782 44.1344 120.395 43.6841 119.833 43.4611C119.062 43.1559 118.254 42.9332 117.469 42.6668C116.316 42.284 115.148 41.94 114.025 41.4946C112.121 40.7486 111.283 39.237 111.08 37.2657C110.978 36.2967 111.041 35.3426 111.23 34.4029C111.487 33.1238 112.218 32.2085 113.468 31.7433C114.349 31.4188 115.265 31.293 116.2 31.2493C116.631 31.2298 117.057 31.1815 117.488 31.1912C118.854 31.2105 120.22 31.2395 121.572 31.4867C122.221 31.6076 122.875 31.695 123.524 31.7967C123.684 31.8209 123.752 31.9033 123.737 32.0582C123.674 32.7413 123.616 33.429 123.529 34.1072C123.519 34.1701 123.335 34.2624 123.228 34.2575C122.226 34.2477 121.223 34.2236 120.22 34.204C119.048 34.1848 117.871 34.1411 116.699 34.1557C116.267 34.1606 115.832 34.2914 115.415 34.4173C115.047 34.5287 114.814 34.8193 114.688 35.1779C114.465 35.8075 114.485 36.4662 114.567 37.1105C114.693 38.0697 115.362 38.5784 116.205 38.8496C117.416 39.2419 118.646 39.581 119.871 39.9347C120.981 40.2494 122.046 40.6273 122.938 41.4121C123.708 42.0854 124.105 42.9429 124.265 43.9117C124.376 44.5947 124.449 45.2971 124.43 45.985C124.415 46.6339 124.314 47.2977 124.163 47.9322C123.785 49.5211 122.662 50.3203 121.146 50.6982C119.813 51.0275 118.462 51.0614 117.105 51.0373C116.238 51.0229 115.367 51.0131 114.504 50.9212C113.429 50.8048 112.363 50.6013 111.268 50.4318L111.264 50.4367Z" fill="#0A2231"/>
<path d="M108.861 47.7527C108.895 48.2271 108.924 48.6875 108.967 49.1427C108.991 49.3947 109.045 49.6464 109.074 49.9033C109.108 50.2085 109.127 50.3295 108.764 50.4169C107.65 50.6881 106.531 50.9255 105.383 50.9496C104.239 50.9738 103.082 51.0853 101.948 50.9787C100.156 50.8091 98.4409 50.3442 97.225 48.8473C96.4986 47.9561 96.1014 46.9144 95.8396 45.8052C95.3844 43.8821 95.3264 41.9251 95.4037 39.9632C95.4376 39.1445 95.4764 38.3163 95.6169 37.5122C95.8687 36.0444 96.2322 34.6153 97.2009 33.4092C98.0728 32.3241 99.2208 31.7574 100.558 31.4959C101.764 31.2585 102.98 31.1421 104.206 31.2148C105.16 31.2683 106.114 31.3844 107.063 31.4959C107.616 31.5588 108.163 31.6703 108.739 31.7623C108.638 32.6632 108.541 33.506 108.439 34.4023C108.042 34.3828 107.635 34.3635 107.233 34.344C107.194 34.344 107.155 34.3345 107.112 34.3345C106.473 34.315 105.828 34.2908 105.189 34.2716C104.549 34.252 103.905 34.1793 103.266 34.223C102.631 34.2667 101.992 34.3733 101.381 34.5524C100.446 34.8236 99.9378 35.5696 99.6085 36.432C99.3421 37.1197 99.1967 37.8367 99.1725 38.5778C99.1289 39.8566 99.0369 41.1403 99.0659 42.4191C99.0901 43.5818 99.2159 44.7445 99.6375 45.8586C100.102 47.0791 100.979 47.7912 102.263 47.9027C103.333 47.9946 104.414 47.9946 105.489 47.9656C106.487 47.9415 107.48 47.8251 108.473 47.7527C108.58 47.7429 108.691 47.7527 108.856 47.7527H108.861Z" fill="#0A2231"/>
<path d="M86.2405 34.3828H80.4373V34.7702C80.4373 39.9535 80.4373 45.1365 80.4422 50.3149C80.4422 50.6201 80.3454 50.7026 80.0548 50.6977C79.1295 50.683 78.1996 50.683 77.2742 50.6879C77.032 50.6879 76.9449 50.6347 76.9449 50.3684C76.9544 45.1658 76.9498 39.9633 76.9449 34.7607C76.9449 34.4507 76.882 34.3926 76.5041 34.3877C75.4966 34.3828 74.4888 34.3877 73.4813 34.3828C72.6772 34.3828 71.8682 34.378 71.0642 34.3731C71.0495 34.3587 71.0351 34.3441 71.0156 34.3294V31.5684H86.3568C86.3568 32.479 86.3568 33.3704 86.3568 34.2616C86.3568 34.286 86.3278 34.3101 86.3132 34.3343C86.289 34.3489 86.2649 34.3633 86.2405 34.3731V34.3828Z" fill="#0A2231"/>
<path d="M92.2614 50.8736H88.6719V31.5796H92.2614V50.8736Z" fill="#0B2231"/>
</g>
<defs>
<clipPath id="clip0_1601_229">
<rect width="124.977" height="61.4738" fill="white" transform="translate(0 0.667969)"/>
</clipPath>
</defs>
</svg>
