<svg width="140" height="51" viewBox="0 0 140 51" fill="none" xmlns="http://www.w3.org/2000/svg">
<path d="M0.723568 20.9341L6.92335 0.893574H13.5854L19.7852 20.9341H15.2985L14.0477 16.5018H6.46108L5.23744 20.9341H0.723568ZM7.43999 13.0484H13.0687L10.6758 4.42853H9.86008L7.43999 13.0484ZM25.7385 20.9341L22.7202 17.9158V6.73986H26.9078L26.8806 17.1272L27.9411 18.2421H29.8717L32.6725 15.6316V6.73986H36.86V20.9341H32.6725V18.9491L30.4699 20.9341H25.7385ZM44.6729 20.9341L41.8449 18.2693V9.56782H40.7844V6.73986H42.008L43.2045 2.96017H46.0325V6.73986H48.3982V9.56782H46.0325V17.0184L46.957 17.9702H49.0236V20.9341H44.6729ZM55.4479 20.9341L52.4296 17.9158V9.75817L55.4479 6.73986H63.4152L66.4607 9.75817V17.9158L63.4152 20.9341H55.4479ZM57.6776 18.2421H61.1854L62.2731 17.1544L62.2459 10.4924L61.1854 9.40467L57.6776 9.43186L56.59 10.4924L56.6172 17.1544L57.6776 18.2421ZM71.1067 20.9341V0.893574H75.7565L81.2221 14.2448L86.6877 0.893574H91.3375V20.9341H87.2315V8.48014L82.3098 20.499H80.1344L75.2127 8.45295V20.9341H71.1067ZM96.33 5.16272V1.57338H100.518V5.16272H96.33ZM96.33 20.9341V6.71266H100.518V20.9341H96.33ZM105.411 20.9341V6.71266H109.598V8.94241L112.073 6.71266H117.049L120.067 9.75817V20.9341H115.88V10.4924L114.846 9.43186H112.698L109.598 12.287V20.9341H105.411ZM127.46 20.9341L124.442 17.9158V9.75817L127.46 6.71266H132.545L134.611 8.6433V0.893574H138.799V20.9341H134.611V19.0306L132.545 20.9341H127.46ZM131.947 18.2149L134.611 15.7132V11.9335L131.974 9.45906L129.472 9.43186L128.548 10.4108V17.2632L129.472 18.2149H131.947ZM2.64984 44.9341V24.8936H14.9678L19.1554 29.0811V40.7465L14.9678 44.9341H2.64984ZM6.8918 41.5079H13.0644L14.995 39.5773V30.2232L13.0644 28.3198H6.8918V41.5079ZM22.9194 50.019V46.9463H30.941L32.0287 45.8586V42.8403L29.6902 44.9341H24.9316L21.9133 41.9158V30.7399H26.1008V41.1272L27.1613 42.2149H29.0919L32.0287 39.4957V30.7399H36.0531V46.9735L33.0348 50.019H22.9194ZM39.3718 44.9341V30.7127H43.5594V32.9424L46.0338 30.7127H51.01L54.0283 33.7582V44.9341H49.8407V34.4924L48.8074 33.4319H46.6593L43.5594 36.287V44.9341H39.3718ZM59.708 44.9341L56.6897 41.9158V38.8703L59.708 35.852H66.5332V34.7643L65.4455 33.6766H58.4844V30.7399H67.7025L70.7208 33.7582V44.9341H66.5332V42.9219L64.5482 44.9341H59.708ZM61.9378 42.2693H63.95L66.5332 39.686V38.3808H61.9378L60.8501 39.4413L60.8773 41.2088L61.9378 42.2693ZM74.3443 44.9341V30.7127H78.5319V32.9424L81.0064 30.7127H85.9825L88.3754 33.1328L91.0674 30.7127H96.0435L99.0619 33.7582V44.9341H94.8743V34.4924L93.841 33.4319H91.6928L89.0008 35.8791V44.9341H84.8132V34.4924L83.7799 33.4319H81.6318L78.5319 36.287V44.9341H74.3443ZM102.678 29.1627V25.5734H106.866V29.1627H102.678ZM102.678 44.9341V30.7127H106.866V44.9341H102.678ZM113.363 44.9341L110.345 41.9158V33.7582L113.363 30.7399H120.868L123.669 33.3775V36.0967H119.481V34.4924L118.421 33.4047L115.593 33.4319L114.505 34.4924L114.532 40.7193L115.593 41.807L123.451 41.7798V44.9341H113.363ZM126.845 44.9341V41.8342H134.405L135.329 40.9097V40.1755L134.323 39.1422H128.939L126.111 36.4502V33.4047L128.912 30.7399H138.021V33.8126H131.06L130.217 34.7099V35.2265L131.196 36.2326H136.635L139.463 38.8975V42.2421L136.662 44.9341H126.845Z" fill="black"/>
</svg>
