<svg width="168" height="39" viewBox="0 0 168 39" fill="none" xmlns="http://www.w3.org/2000/svg">
<g clip-path="url(#clip0_1601_242)">
<path d="M102.236 15.6849C102.954 13.7225 103.268 11.8616 103.147 9.93261C103.024 7.99248 102.475 6.18474 101.55 4.48465C100.63 2.79322 99.3199 1.42968 97.6953 0.12925C98.043 0.0698583 98.2063 0.0178904 98.3684 0.0166531C100.841 0.0117038 103.313 0.0240771 105.785 0.00180519C106.195 -0.0019068 106.389 0.210913 106.6 0.481888C109.669 4.41165 112.741 8.33893 115.812 12.2674C118.593 15.8235 121.379 19.3771 124.148 22.9419C124.435 23.3118 124.73 23.4776 125.211 23.464C126.693 23.4219 128.178 23.4727 129.659 23.4133C133.578 23.2561 137.002 20.2791 137.755 16.4199C138.686 11.6537 135.767 7.1548 131.028 6.09318C130.355 5.94222 129.648 5.88159 128.957 5.87912C124.08 5.86056 119.203 5.86056 114.326 5.88159C113.799 5.88407 113.466 5.72074 113.152 5.30747C112.01 3.80659 110.832 2.33169 109.671 0.845663C109.512 0.641504 109.368 0.423734 109.122 0.0772822C109.528 0.0488237 109.78 0.0166531 110.033 0.0154158C113.292 0.0129411 116.55 0.0117038 119.809 0.0154158C123.044 0.0191278 126.283 -0.0415014 129.516 0.0550103C134.64 0.208439 138.655 2.48884 141.461 6.76381C144.943 12.0682 144.504 19.1136 140.429 23.9763C137.505 27.4655 133.725 29.2324 129.173 29.3017C126.904 29.3364 124.633 29.298 122.364 29.3228C121.889 29.3277 121.586 29.1731 121.295 28.7981C118.041 24.6135 114.763 20.4486 111.515 16.2603C111.172 15.8173 110.821 15.6676 110.276 15.6738C107.895 15.7023 105.513 15.6862 103.13 15.6862C102.888 15.6862 102.646 15.6862 102.238 15.6862L102.236 15.6849Z" fill="#081F57"/>
<path d="M124.305 23.1228L129.128 29.302C126.874 29.3354 124.617 29.2983 122.363 29.3218C121.888 29.3268 121.584 29.1721 121.294 28.7984C118.039 24.6138 114.761 20.4489 111.514 16.2593C111.17 15.8163 110.82 15.6666 110.275 15.6728C107.893 15.7013 105.51 15.6852 103.128 15.6852H102.236C102.954 13.7228 103.268 11.8618 103.147 9.93281C103.026 7.99268 102.475 6.18494 101.551 4.48485C100.63 2.79342 99.3199 1.42988 97.6953 0.128208C98.0442 0.0688167 98.2063 0.0168489 98.3684 0.0168489C100.841 0.0106623 103.313 0.0230355 105.785 0.00200095C106.193 -0.00171104 106.389 0.211109 106.6 0.482084C109.669 4.41185 112.741 8.33913 115.812 12.2677C118.593 15.8238 121.379 19.3761 124.148 22.9421C124.199 23.0065 124.248 23.0659 124.3 23.1178L124.305 23.1228Z" fill="#D8B74C"/>
<path d="M38.9039 0.0191795C46.9811 -0.0154657 53.6021 6.54733 53.5761 14.6617C53.5489 22.8157 47.0405 29.256 38.9509 29.2931C30.8946 29.3303 24.3182 22.7811 24.2737 14.7075C24.2279 6.62157 30.7684 0.0538247 38.9039 0.0191795ZM38.9521 23.4332C43.8482 23.4158 47.7149 19.4947 47.7013 14.5615C47.6877 9.73469 43.7183 5.83958 38.837 5.86309C34.0127 5.8866 30.125 9.85843 30.146 14.7422C30.1671 19.543 34.1253 23.4505 38.9521 23.4332Z" fill="#081F57"/>
<path d="M47.8263 0.0500481C48.0403 0.0352002 48.2544 0.0067416 48.4672 0.0067416C50.9171 0.00426694 53.367 0.0141656 55.8169 -0.0019197C56.2351 -0.00439436 56.5284 0.130475 56.8204 0.423722C59.545 3.16565 62.2832 5.89396 65.0128 8.63217C65.186 8.8054 65.3159 9.02193 65.5052 9.26939C65.791 9.00584 65.9717 8.8487 66.1412 8.68043C68.8769 5.9484 71.6151 3.22133 74.3373 0.476927C74.6627 0.149034 74.9856 -0.00686902 75.4533 0.000554954C76.9369 0.0265389 78.4205 0.0104536 79.904 0.0104536C80.1255 0.0104536 80.347 0.0104536 80.5499 0.0104536C80.712 0.530132 80.7504 28.4047 80.5994 29.2559H74.8223C74.8087 26.9434 74.8174 24.6382 74.8161 22.3331C74.8149 20.0415 74.8161 17.7488 74.8161 15.4572C74.8161 13.1496 74.8161 10.842 74.8161 8.35253C74.5241 8.62351 74.3484 8.77694 74.1838 8.9415C72.1002 11.0215 70.0091 13.0939 67.9465 15.1949C67.5815 15.5661 67.214 15.7171 66.7067 15.6936C65.9445 15.6602 65.1773 15.6639 64.4151 15.6936C63.9771 15.7109 63.6628 15.5748 63.3523 15.2593C61.5383 13.4181 59.7046 11.5968 57.8771 9.76927C55.7006 7.59157 53.5192 5.41759 51.3477 3.23618C50.3628 2.24631 49.3271 1.32079 48.1492 0.561065C48.0081 0.469503 47.8931 0.338346 47.7656 0.225749C47.7867 0.167594 47.8077 0.110677 47.8287 0.0525228L47.8263 0.0500481Z" fill="#081F57"/>
<path d="M145.278 19.8347C147.356 22.3823 149.956 23.6568 153.207 23.4043C155.428 23.2311 157.29 22.2784 158.84 20.6884C161.848 17.6025 162.042 12.4787 159.241 9.10578C157.421 6.91447 155.046 5.82314 152.208 5.88749C149.373 5.95183 147.098 7.2337 145.28 9.51162C144.811 8.48711 144.443 7.55417 143.969 6.67814C143.491 5.79592 142.91 4.96939 142.375 4.12058C145.449 0.833 151.536 -1.20241 157.343 0.868882C163.127 2.93274 167.203 8.53785 167.083 14.9868C166.968 21.14 162.791 26.7526 156.938 28.6172C150.841 30.5598 144.957 28.0864 142.385 25.1985C142.918 24.3422 143.492 23.512 143.97 22.6285C144.444 21.7513 144.821 20.822 145.277 19.8371L145.278 19.8347Z" fill="#081F57"/>
<path d="M22.8485 19.7705C23.5723 21.7799 24.4768 23.5481 25.7129 25.1145C23.3855 27.8626 17.8237 30.2816 12.1815 28.8822C6.15448 27.3875 1.62585 22.3627 1.03565 15.9063C0.467711 9.69862 4.04112 3.71737 9.7316 1.24023C15.495 -1.26907 21.9155 0.268927 25.7117 4.07619C25.1883 4.91386 24.6179 5.7404 24.1415 6.61767C23.6639 7.49865 23.2803 8.43159 22.8101 9.44001C22.6381 9.26431 22.4859 9.12573 22.3498 8.97107C20.5916 6.97402 18.3891 5.89878 15.7239 5.86537C9.50269 5.78618 5.17699 12.0693 7.44996 17.8563C9.83058 23.9155 17.7841 25.3682 22.1432 20.5401C22.3362 20.3261 22.533 20.1157 22.8485 19.7705Z" fill="#081F57"/>
<path d="M82.9297 5.8643V0.0834887C83.1079 0.0587421 83.2761 0.0141983 83.4444 0.0141983C85.8486 0.0179102 88.2539 -0.00683632 90.6568 0.0426568C96.0899 0.155253 100.758 4.70987 100.949 10.1356C101.115 14.8423 99.0174 18.2734 94.8699 20.4734C94.7128 20.5563 94.5556 20.6392 94.3131 20.7654C96.5119 23.5828 98.6871 26.368 100.918 29.2275C100.692 29.2634 100.552 29.303 100.412 29.3042C98.2998 29.3079 96.1877 29.2993 94.0756 29.3141C93.7019 29.3166 93.4569 29.2015 93.2255 28.9033C89.9701 24.7211 86.7023 20.5476 83.4395 16.3704C83.3108 16.2058 83.2106 16.0202 83.0225 15.7295C83.4036 15.7109 83.6399 15.6899 83.8762 15.6886C85.9438 15.6862 88.0114 15.6899 90.0777 15.6862C92.7603 15.6812 94.8229 13.8735 95.1087 11.2133C95.3488 8.98359 93.8974 6.60917 91.3497 6.0103C90.9179 5.90884 90.4613 5.8742 90.0146 5.87172C87.9248 5.85687 85.8349 5.8643 83.7451 5.8643C83.5001 5.8643 83.2539 5.8643 82.9297 5.8643Z" fill="#081F57"/>
<path d="M130.911 35.1404C130.918 37.2624 129.344 38.8734 127.248 38.8895C125.054 38.9068 123.424 37.3193 123.422 35.1627C123.419 33.0369 125.038 31.4086 127.162 31.3999C129.294 31.39 130.905 32.9973 130.911 35.1404ZM125.174 35.1255C125.194 35.1317 125.215 35.1379 125.234 35.1441C125.238 35.2332 125.241 35.3235 125.247 35.4126C125.331 36.4928 126.068 37.2327 127.098 37.2711C128.132 37.3094 128.937 36.6326 129.064 35.5512C129.11 35.1602 129.078 34.7383 128.984 34.3547C128.795 33.5913 128.178 33.1248 127.376 33.0505C126.498 32.9689 125.839 33.2955 125.496 34.0441C125.34 34.3831 125.278 34.7642 125.174 35.1255Z" fill="black"/>
<path d="M122.629 38.8056C121.944 38.8056 121.388 38.8328 120.839 38.7883C120.689 38.7759 120.516 38.5717 120.424 38.4146C120.052 37.7749 119.71 37.1191 119.349 36.472C119.233 36.2641 119.149 35.9931 118.712 36.1156V38.766H116.938V31.587C117.053 31.5598 117.157 31.514 117.26 31.5128C118.203 31.5066 119.147 31.493 120.089 31.5177C120.421 31.5264 120.761 31.5957 121.076 31.7021C121.97 32.0015 122.492 32.6325 122.57 33.5791C122.649 34.5405 122.289 35.2866 121.413 35.7494C121.315 35.8013 121.216 35.8533 121.12 35.909C121.102 35.9189 121.095 35.9449 121.04 36.0315C121.535 36.8964 122.049 37.7959 122.627 38.8056H122.629ZM118.744 32.9914V34.8152C119.088 34.8152 119.376 34.8164 119.665 34.8152C119.776 34.8152 119.89 34.8152 119.999 34.7942C120.511 34.7001 120.792 34.3623 120.777 33.8637C120.762 33.3589 120.478 33.0421 119.941 32.9976C119.564 32.9666 119.184 32.9914 118.744 32.9914Z" fill="black"/>
<path d="M147.021 31.5366H149.094C149.961 33.9333 150.824 36.3251 151.713 38.7824H149.86C149.701 38.3803 149.547 37.9905 149.385 37.581H146.697C146.552 37.9509 146.398 38.3419 146.229 38.7738H144.406C145.258 36.3337 146.139 33.9568 147.022 31.5366H147.021ZM148.133 33.7279C148.075 33.7316 148.016 33.7341 147.957 33.7378C147.707 34.526 147.394 35.2956 147.198 36.1284H148.924C148.644 35.282 148.388 34.505 148.132 33.7279H148.133Z" fill="black"/>
<path d="M107.81 31.5068C108.683 33.9159 109.543 36.2903 110.424 38.7204C109.789 38.8862 109.204 38.8083 108.594 38.7773C108.433 38.3703 108.28 37.9805 108.12 37.5747H105.418C105.277 37.9409 105.126 38.3319 104.959 38.7662H103.18C103.233 38.5559 103.264 38.3678 103.328 38.1908C104.071 36.1245 104.825 34.0631 105.559 31.9943C105.682 31.6478 105.852 31.4808 106.236 31.5006C106.748 31.5278 107.262 31.5068 107.81 31.5068ZM107.656 36.1208C107.361 35.2695 107.148 34.4801 106.744 33.5818C106.431 34.5172 106.173 35.2856 105.893 36.1208H107.655H107.656Z" fill="black"/>
<path d="M159.349 33.9938C158.733 33.9938 158.199 34.0149 157.668 33.9802C157.523 33.9703 157.361 33.8194 157.253 33.6944C156.716 33.0708 156.036 32.9335 155.297 33.1648C154.558 33.3962 154.182 33.9815 154.099 34.7288C154.059 35.1025 154.056 35.5034 154.145 35.8647C154.31 36.5341 154.718 37.029 155.426 37.2022C156.145 37.3779 156.776 37.222 157.236 36.6281C157.412 36.4017 157.589 36.3213 157.857 36.3287C158.327 36.3423 158.799 36.3324 159.317 36.3324C159.25 36.9251 158.994 37.3829 158.618 37.7665C157.512 38.8937 156.156 39.1362 154.703 38.692C153.223 38.2391 152.42 37.149 152.269 35.6172C152.123 34.1238 152.553 32.827 153.875 32.0092C155.183 31.2012 156.57 31.2111 157.905 31.9807C158.628 32.3965 159.118 33.0312 159.347 33.9938H159.349Z" fill="black"/>
<path d="M137.103 33.5807H135.31C135.244 33.4705 135.175 33.3357 135.088 33.2132C134.889 32.9348 134.61 32.8222 134.271 32.8432C133.97 32.8618 133.758 33.0041 133.666 33.2924C133.571 33.5844 133.668 33.8393 133.908 34.0026C134.108 34.1399 134.345 34.229 134.571 34.3218C135.069 34.5247 135.575 34.7103 136.071 34.9157C137.603 35.5468 137.585 37.5141 136.306 38.4223C135.336 39.1115 133.491 39.0509 132.548 38.311C132.048 37.9187 131.805 37.4362 131.761 36.7111C132.344 36.5403 132.942 36.6839 133.544 36.6294C133.739 37.2073 134.08 37.5413 134.704 37.4498C135.01 37.4052 135.273 37.2951 135.347 36.9548C135.419 36.627 135.284 36.3684 135.006 36.2162C134.712 36.0565 134.394 35.9402 134.084 35.814C133.648 35.6383 133.188 35.5109 132.773 35.2931C131.489 34.6175 131.354 32.8655 132.499 31.9734C133.495 31.1963 135.467 31.2235 136.415 32.0451C136.854 32.425 137.118 32.9014 137.098 33.5807H137.103Z" fill="black"/>
<path d="M140.092 36.1774V38.7708H138.359V31.5832C138.508 31.5597 138.656 31.5151 138.805 31.5151C139.657 31.5089 140.511 31.4892 141.364 31.5188C142.247 31.5485 143.06 31.7824 143.562 32.5941C144.509 34.1222 143.551 35.998 141.725 36.1724C141.219 36.2207 140.703 36.1799 140.092 36.1799V36.1774ZM140.136 34.7508C140.564 34.7508 140.965 34.7879 141.355 34.7421C141.855 34.6839 142.092 34.3672 142.094 33.8648C142.096 33.3847 141.829 33.0333 141.351 32.9814C140.961 32.9381 140.562 32.9727 140.136 32.9727V34.7508Z" fill="black"/>
<path d="M111.32 38.8069V31.54H115.707V32.8863C114.874 33.0001 114.024 32.8764 113.127 32.9642V34.402H115.386V35.7705H113.126V37.3988H115.709V38.8069C114.245 38.818 112.8 38.818 111.32 38.8069Z" fill="black"/>
<path d="M162.306 35.7951C162.293 36.0945 162.278 36.3135 162.274 36.5325C162.269 36.7973 162.274 37.0621 162.274 37.39H164.937V38.6916C164.499 38.85 161.334 38.8909 160.523 38.7337V31.556C161.996 31.4669 163.457 31.5275 164.958 31.5151V32.9096H162.391C162.207 33.4268 162.267 33.8809 162.339 34.4055H164.595V35.7938H162.306V35.7951Z" fill="black"/>
</g>
<defs>
<clipPath id="clip0_1601_242">
<rect width="166.173" height="38.9759" fill="white" transform="translate(0.976562 -0.00195312)"/>
</clipPath>
</defs>
</svg>
